<svg width="32" height="32" viewBox="0 0 32 32" fill="none" xmlns="http://www.w3.org/2000/svg">
<path d="M28.7391 5.33358C28.6179 5.3211 28.4958 5.3211 28.3746 5.33358H3.48576C3.32624 5.33604 3.16778 5.35996 3.01465 5.40469L15.8591 18.1958L28.7391 5.33358Z" fill="#81CBE7"/>
<path d="M30.0516 6.56836L17.1094 19.4572C16.7763 19.7884 16.3258 19.9742 15.8561 19.9742C15.3864 19.9742 14.9358 19.7884 14.6028 19.4572L1.77609 6.66614C1.73666 6.81106 1.71575 6.9604 1.71387 7.11058V24.8884C1.71387 25.3599 1.90117 25.812 2.23457 26.1454C2.56796 26.4788 3.02015 26.6661 3.49164 26.6661H28.3805C28.852 26.6661 29.3042 26.4788 29.6376 26.1454C29.971 25.812 30.1583 25.3599 30.1583 24.8884V7.11058C30.1512 6.92539 30.1152 6.74244 30.0516 6.56836ZM4.70942 24.8884H3.47387V23.6172L9.93609 17.2084L11.1894 18.4617L4.70942 24.8884ZM28.3628 24.8884H27.1183L20.6383 18.4617L21.8916 17.2084L28.3539 23.6172L28.3628 24.8884Z" fill="#81CBE7"/>
</svg>
