<svg width="305" height="199" viewBox="0 0 305 199" fill="none" xmlns="http://www.w3.org/2000/svg">
<path d="M190.719 36.7301L172.076 18.3877L209.362 18.3877L190.719 36.7301Z" fill="#BEB385"/>
<path d="M190.719 73.4147L172.076 55.0723L209.362 55.0723L190.719 73.4147Z" fill="#CFC596"/>
<path d="M68.4429 69.6182L55.5755 57.196L81.3102 57.196L68.4429 69.6182Z" fill="#CFC596"/>
<path d="M301.28 36.7301L282.637 18.3877L319.923 18.3877L301.28 36.7301Z" fill="#CFC596"/>
<path d="M246 55.0724L227.358 36.73L264.643 36.73L246 55.0724Z" fill="#CFC596"/>
<path d="M319.389 124.247L300.746 105.905L338.032 105.905L319.389 124.247Z" fill="#CFC596"/>
<path d="M301.542 69.6165L288.885 56.8289L314.198 56.8289L301.542 69.6165Z" fill="#CFC596"/>
<path d="M317.131 198.224L303.209 184.706L331.053 184.706L317.131 198.224Z" fill="#CFC596"/>
<path d="M209.317 55.0724L190.674 36.73L227.96 36.73L209.317 55.0724Z" fill="#A6A06E"/>
<path d="M264.598 36.7301L245.955 18.3877L283.241 18.3877L264.598 36.7301Z" fill="#A6A06E"/>
<path d="M319.875 55.0724L301.233 36.73L338.518 36.73L319.875 55.0724Z" fill="#CFC596"/>
<path d="M264.594 73.4147L245.951 55.0723L283.237 55.0723L264.594 73.4147Z" fill="#BCB679"/>
<path d="M190.718 36.7318L209.361 55.0742L172.075 55.0742L190.718 36.7318Z" fill="#807552"/>
<path d="M110.976 30.5468L129.619 48.8892L92.3333 48.8892L110.976 30.5468Z" fill="#807552"/>
<path d="M86.7166 3.3656L97.6854 14.3264L75.7477 14.3264L86.7166 3.3656Z" fill="#807552"/>
<path d="M245.998 18.3877L264.64 36.7301L227.355 36.7301L245.998 18.3877Z" fill="#807552"/>
<path d="M301.283 36.7301L319.926 55.0725L282.64 55.0725L301.283 36.7301Z" fill="#A0985F"/>
<path d="M246.012 60.8492L255.293 70.3486L236.731 70.3486L246.012 60.8492Z" fill="#A0985F"/>
<path d="M319.388 124.247L338.031 142.59L300.745 142.59L319.388 124.247Z" fill="#A0985F"/>
<path d="M190.842 36.7319L172.117 55.12L172.117 18.3895L190.842 36.7319Z" fill="#A08F6C"/>
<path d="M246.125 18.3878L227.4 36.7758L227.4 0.0454118L246.125 18.3878Z" fill="#A08F6C"/>
<path d="M209.313 18.3878L228.037 36.7758L228.037 0.0454085L209.313 18.3878Z" fill="#A08F6C" fill-opacity="0.5"/>
<path d="M12.65 37.4664L25.3315 24.3135L-2.8642e-06 24.3135L12.65 37.4664Z" fill="#A08F6C" fill-opacity="0.5"/>
<path d="M154.031 36.7319L172.756 55.12L172.756 18.3895L154.031 36.7319Z" fill="#BCB679"/>
<path d="M246.129 55.0271L227.404 73.4151L227.404 36.6847L246.129 55.0271Z" fill="#A08F6C"/>
<path d="M319.516 124.202L300.791 142.59L300.791 105.86L319.516 124.202Z" fill="#A08F6C"/>
<path d="M264.594 36.6848L283.318 55.0728L283.318 18.3424L264.594 36.6848Z" fill="#807552"/>
<path d="M209.232 23.826L219.568 34.0561L198.896 34.0561L209.232 23.826Z" fill="#A6A06E"/>
<path d="M319.876 55.0724L338.519 73.4148L301.234 73.4148L319.876 55.0724Z" fill="#A6A06E" fill-opacity="0.5"/>
<path d="M209.316 55.0724L227.959 73.4148L190.673 73.4148L209.316 55.0724Z" fill="#BCB679"/>
<path d="M301.302 142.59L319.945 160.932L282.659 160.932L301.302 142.59Z" fill="#BCB679" fill-opacity="0.5"/>
<path d="M290.096 106.155L300.854 116.75L279.338 116.75L290.096 106.155Z" fill="#BCB679" fill-opacity="0.5"/>
<path d="M285.223 76.9252L295.981 87.5206L274.465 87.5206L285.223 76.9252Z" fill="#BCB679" fill-opacity="0.5"/>
</svg>
