<svg width="694" height="407" viewBox="0 0 694 407" fill="none" xmlns="http://www.w3.org/2000/svg">
<path d="M302.125 75.3994L340.395 37.7466L263.856 37.7466L302.125 75.3994Z" fill="#BEB385"/>
<path d="M301.936 150.706L340.041 113.206L263.83 113.206L301.936 150.706Z" fill="#CFC596"/>
<path d="M553.119 142.909L579.533 117.409L526.705 117.409L553.119 142.909Z" fill="#CFC596"/>
<path d="M74.9727 75.3994L113.078 37.8994L36.8675 37.8994L74.9727 75.3994Z" fill="#CFC596"/>
<path d="M188.453 113.053L226.558 75.5527L150.348 75.5527L188.453 113.053Z" fill="#CFC596"/>
<path d="M37.7969 255.053L75.902 217.553L-0.308246 217.553L37.7969 255.053Z" fill="#CFC596"/>
<path d="M74.6211 142.909L100.602 116.659L48.6403 116.659L74.6211 142.909Z" fill="#CFC596"/>
<path d="M25.6211 204.909L54.1999 177.159L-2.95775 177.159L25.6211 204.909Z" fill="#CFC596"/>
<path d="M42.6211 406.909L71.1999 379.159L14.0423 379.159L42.6211 406.909Z" fill="#CFC596"/>
<path d="M263.76 113.053L301.865 75.5527L225.655 75.5527L263.76 113.053Z" fill="#A6A06E"/>
<path d="M377.24 150.706L415.345 113.206L339.135 113.206L377.24 150.706Z" fill="#A6A06E"/>
<path d="M150.277 75.3994L188.382 37.8994L112.172 37.8994L150.277 75.3994Z" fill="#A6A06E"/>
<path d="M263.76 188.358L301.865 150.858L225.655 150.858L263.76 188.358Z" fill="#CFC596"/>
<path d="M36.7969 113.053L74.902 75.5527L-1.30825 75.5527L36.7969 113.053Z" fill="#CFC596"/>
<path d="M150.467 150.706L188.737 113.053L112.198 113.053L150.467 150.706Z" fill="#BCB679"/>
<path d="M-0.378906 292.706L37.7262 255.206L-38.484 255.206L-0.378906 292.706Z" fill="#BCB679"/>
<path d="M302.314 75.3994L264.209 112.899L340.42 112.899L302.314 75.3994Z" fill="#807552"/>
<path d="M466 62.7051L427.895 100.205L504.105 100.205L466 62.7051Z" fill="#807552"/>
<path d="M515.621 6.90918L493.104 29.4092L538.138 29.4092L515.621 6.90918Z" fill="#807552"/>
<path d="M188.834 37.7471L150.729 75.2471L226.939 75.2471L188.834 37.7471Z" fill="#807552"/>
<path d="M75.3516 75.3994L37.2465 112.899L113.457 112.899L75.3516 75.3994Z" fill="#A0985F"/>
<path d="M188.621 124.909L169.569 144.409L207.674 144.409L188.621 124.909Z" fill="#A0985F"/>
<path d="M38.1758 255.053L0.07067 292.553L76.2809 292.553L38.1758 255.053Z" fill="#A0985F"/>
<path d="M301.863 75.2005L339.863 112.747L339.863 37.7471L301.863 75.2005Z" fill="#A08F6C"/>
<path d="M188.381 37.5472L226.381 75.0937L226.381 0.0937467L188.381 37.5472Z" fill="#A08F6C"/>
<path d="M263.949 37.5472L225.949 75.0938L225.949 0.0937533L263.949 37.5472Z" fill="#A08F6C" fill-opacity="0.5"/>
<path d="M667.651 76.9092L641.619 49.9092L693.619 49.9092L667.651 76.9092Z" fill="#A08F6C" fill-opacity="0.5"/>
<path d="M377.43 75.2005L339.43 112.747L339.43 37.7471L377.43 75.2005Z" fill="#BCB679"/>
<path d="M301.863 150.412L339.863 187.959L339.863 112.959L301.863 150.412Z" fill="#A08F6C"/>
<path d="M188.381 112.759L226.381 150.306L226.381 75.3057L188.381 112.759Z" fill="#A08F6C"/>
<path d="M37.7246 254.759L75.7246 292.306L75.7246 217.306L37.7246 254.759Z" fill="#A08F6C"/>
<path d="M36.9863 37.4534L-1.01366 75L-1.01367 3.31185e-06L36.9863 37.4534Z" fill="#A08F6C" fill-opacity="0.5"/>
<path d="M377.432 150.412L339.432 187.959L339.432 112.959L377.432 150.412Z" fill="#807552"/>
<path d="M150.467 75.1067L112.467 112.653L112.467 37.6533L150.467 75.1067Z" fill="#807552"/>
<path d="M264.121 48.9092L242.903 69.9092L285.339 69.9092L264.121 48.9092Z" fill="#A6A06E"/>
<path d="M37.1758 113.053L-0.92933 150.553L75.2809 150.553L37.1758 113.053Z" fill="#A6A06E" fill-opacity="0.5"/>
<path d="M264.139 113.053L226.034 150.553L302.244 150.553L264.139 113.053Z" fill="#BCB679"/>
<path d="M36.6211 49.9092L16.7025 69.4092L56.5397 69.4092L36.6211 49.9092Z" fill="#BCB679"/>
<path d="M377.621 150.706L339.516 188.206L415.726 188.206L377.621 150.706Z" fill="#BCB679"/>
<path d="M225.963 150.706L187.858 188.206L264.068 188.206L225.963 150.706Z" fill="#BCB679" fill-opacity="0.5"/>
<path d="M75.3047 292.706L37.1996 330.206L113.41 330.206L75.3047 292.706Z" fill="#BCB679" fill-opacity="0.5"/>
<path d="M98.1211 217.909L76.0374 239.659L120.205 239.659L98.1211 217.909Z" fill="#BCB679" fill-opacity="0.5"/>
<path d="M108.121 157.909L86.0374 179.659L130.205 179.659L108.121 157.909Z" fill="#BCB679" fill-opacity="0.5"/>
<path d="M-6.87891 309.909L-28.9626 331.659L15.2047 331.659L-6.87891 309.909Z" fill="#BCB679" fill-opacity="0.5"/>
<path d="M-1 75.3994L-39.1051 112.899L37.1051 112.899L-1 75.3994Z" fill="#BCB679"/>
</svg>
