<svg width="88" height="314" viewBox="0 0 88 314" fill="none" xmlns="http://www.w3.org/2000/svg">
<path d="M54.4059 147.414L70.3391 163.793L70.3391 131.035L54.4059 147.414Z" fill="#BEB385"/>
<path d="M23.3168 147.932L39.2499 164.311L39.2499 131.553L23.3168 147.932Z" fill="#CFC596"/>
<path d="M25.9076 254.153L36.7888 265.147L36.7888 243.159L25.9076 254.153Z" fill="#CFC596"/>
<path d="M54.9241 51.297L70.8572 67.4514L70.8572 35.1426L54.9241 51.297Z" fill="#CFC596"/>
<path d="M39.3795 99.4848L55.3127 115.639L55.3127 83.3304L39.3795 99.4848Z" fill="#CFC596"/>
<path d="M25.9076 51.0377L37.1774 62.0317L37.1774 40.0438L25.9076 51.0377Z" fill="#CFC596"/>
<path d="M6.11527e-07 30.0526L12.047 42.1684L12.047 17.9368L6.11527e-07 30.0526Z" fill="#CFC596"/>
<path d="M38.8615 131.351L54.7946 147.281L54.7946 115.421L38.8615 131.351Z" fill="#A6A06E"/>
<path d="M23.3168 179.28L39.2499 195.435L39.2499 163.126L23.3168 179.28Z" fill="#A6A06E"/>
<path d="M54.9241 83.163L70.8572 99.5418L70.8572 66.7843L54.9241 83.163Z" fill="#A6A06E"/>
<path d="M7.77222 131.869L23.7054 147.799L23.7054 115.939L7.77222 131.869Z" fill="#CFC596"/>
<path d="M39.3795 34.975L55.3127 51.3538L55.3127 18.5963L39.3795 34.975Z" fill="#CFC596"/>
<path d="M23.3168 83.163L39.2499 99.5418L39.2499 66.7843L23.3168 83.163Z" fill="#BCB679"/>
<path d="M54.9241 147.414L38.9909 131.035L38.9909 163.793L54.9241 147.414Z" fill="#807552"/>
<path d="M60.6238 217.364L44.6906 200.986L44.6906 233.743L60.6238 217.364Z" fill="#807552"/>
<path d="M83.9406 238.609L74.6138 228.961L74.6138 248.257L83.9406 238.609Z" fill="#807552"/>
<path d="M70.9867 99.485L55.0535 83.3306L55.0535 115.639L70.9867 99.485Z" fill="#807552"/>
<path d="M54.9241 51.297L38.9909 35.1426L38.9909 67.4514L54.9241 51.297Z" fill="#A0985F"/>
<path d="M33.6798 99.4848L25.5189 91.4076L25.5189 107.562L33.6798 99.4848Z" fill="#A0985F"/>
<path d="M54.6846 147.155L38.8614 163.736L70.4686 163.736L54.6846 147.155Z" fill="#A08F6C"/>
<path d="M71.0067 98.967L54.924 115.548L87.0494 115.548L71.0067 98.967Z" fill="#A08F6C"/>
<path d="M71.0067 131.61L54.924 115.029L87.0494 115.029L71.0067 131.61Z" fill="#A08F6C" fill-opacity="0.5"/>
<path d="M54.4059 302.873L65.8052 291.719L65.8052 314L54.4059 302.873Z" fill="#A08F6C" fill-opacity="0.5"/>
<path d="M54.6846 178.762L38.8614 163.218L70.4686 163.218L54.6846 178.762Z" fill="#BCB679"/>
<path d="M23.3368 147.673L7.2541 164.254L39.3795 164.254L23.3368 147.673Z" fill="#A08F6C"/>
<path d="M39.1401 98.9668L23.3168 115.548L54.9241 115.548L39.1401 98.9668Z" fill="#A08F6C"/>
<path d="M71.0067 34.7158L54.924 18.6531L87.0494 18.6531L71.0067 34.7158Z" fill="#A08F6C" fill-opacity="0.5"/>
<path d="M23.3368 179.28L7.2541 163.735L39.3795 163.735L23.3368 179.28Z" fill="#807552"/>
<path d="M55.2027 83.4221L39.3794 66.8413L70.9867 66.8413L55.2027 83.4221Z" fill="#807552"/>
<path d="M66.3235 131.351L57.3854 122.152L57.3854 140.55L66.3235 131.351Z" fill="#A6A06E"/>
<path d="M39.3795 34.9749L23.4463 18.5962L23.4464 51.3537L39.3795 34.9749Z" fill="#A6A06E" fill-opacity="0.5"/>
<path d="M39.3795 131.87L23.4463 115.94L23.4464 147.8L39.3795 131.87Z" fill="#BCB679"/>
<path d="M65.8053 34.975L57.2558 26.6734L57.2558 43.2765L65.8053 34.975Z" fill="#BCB679"/>
<path d="M19.6898 65.287L10.7517 55.8636L10.7517 74.7104L19.6898 65.287Z" fill="#BCB679" fill-opacity="0.5"/>
<path d="M54.9241 18.9124L38.9909 2.53367L38.9909 35.2912L54.9241 18.9124Z" fill="#BCB679"/>
</svg>
