<svg width="727" height="407" viewBox="0 0 727 407" fill="none" xmlns="http://www.w3.org/2000/svg">
<path d="M391.496 75.3994L353.226 37.7466H429.765L391.496 75.3994Z" fill="#BEB385"/>
<path d="M391.686 150.706L353.58 113.206H429.791L391.686 150.706Z" fill="#CFC596"/>
<path d="M140.5 142.909L114.086 117.409H166.914L140.5 142.909Z" fill="#CFC596"/>
<path d="M618.648 75.3994L580.543 37.8994H656.754L618.648 75.3994Z" fill="#CFC596"/>
<path d="M505.168 113.053L467.063 75.5527H543.273L505.168 113.053Z" fill="#CFC596"/>
<path d="M655.824 255.053L617.719 217.553H693.929L655.824 255.053Z" fill="#CFC596"/>
<path d="M619 142.909L593.019 116.659H644.981L619 142.909Z" fill="#CFC596"/>
<path d="M668 204.909L639.421 177.159H696.579L668 204.909Z" fill="#CFC596"/>
<path d="M651 406.909L622.421 379.159H679.579L651 406.909Z" fill="#CFC596"/>
<path d="M429.861 113.053L391.756 75.5527H467.966L429.861 113.053Z" fill="#A6A06E"/>
<path d="M316.381 150.706L278.276 113.206H354.486L316.381 150.706Z" fill="#A6A06E"/>
<path d="M543.344 75.3994L505.239 37.8994H581.449L543.344 75.3994Z" fill="#A6A06E"/>
<path d="M429.861 188.358L391.756 150.858H467.966L429.861 188.358Z" fill="#CFC596"/>
<path d="M656.824 113.053L618.719 75.5527H694.929L656.824 113.053Z" fill="#CFC596"/>
<path d="M543.154 150.706L504.884 113.053H581.423L543.154 150.706Z" fill="#BCB679"/>
<path d="M694 292.706L655.895 255.206H732.105L694 292.706Z" fill="#BCB679"/>
<path d="M391.307 75.3994L429.412 112.899L353.202 112.899L391.307 75.3994Z" fill="#807552"/>
<path d="M227.621 62.7051L265.726 100.205L189.516 100.205L227.621 62.7051Z" fill="#807552"/>
<path d="M178 6.90918L200.517 29.4092L155.483 29.4092L178 6.90918Z" fill="#807552"/>
<path d="M504.787 37.7471L542.892 75.2471L466.682 75.2471L504.787 37.7471Z" fill="#807552"/>
<path d="M618.27 75.3994L656.375 112.899L580.164 112.899L618.27 75.3994Z" fill="#A0985F"/>
<path d="M505 124.909L524.053 144.409L485.947 144.409L505 124.909Z" fill="#A0985F"/>
<path d="M655.445 255.053L693.55 292.553L617.34 292.553L655.445 255.053Z" fill="#A0985F"/>
<path d="M391.758 75.2005L353.758 112.747L353.758 37.7471L391.758 75.2005Z" fill="#A08F6C"/>
<path d="M505.238 37.5472L467.238 75.0938L467.238 0.09375L505.238 37.5472Z" fill="#A08F6C"/>
<path d="M429.672 37.5472L467.672 75.0938L467.672 0.09375L429.672 37.5472Z" fill="#A08F6C" fill-opacity="0.5"/>
<path d="M25.9677 76.9092L52 49.9092L-3.51915e-06 49.9092L25.9677 76.9092Z" fill="#A08F6C" fill-opacity="0.5"/>
<path d="M316.191 75.2005L354.191 112.747L354.191 37.7471L316.191 75.2005Z" fill="#BCB679"/>
<path d="M391.758 150.412L353.758 187.959L353.758 112.959L391.758 150.412Z" fill="#A08F6C"/>
<path d="M505.238 112.759L467.238 150.306L467.238 75.3057L505.238 112.759Z" fill="#A08F6C"/>
<path d="M655.896 254.759L617.896 292.306L617.896 217.306L655.896 254.759Z" fill="#A08F6C"/>
<path d="M656.635 37.4534L694.635 75L694.635 -1.02156e-08L656.635 37.4534Z" fill="#A08F6C" fill-opacity="0.5"/>
<path d="M316.191 150.412L354.191 187.959L354.191 112.959L316.191 150.412Z" fill="#807552"/>
<path d="M543.154 75.1067L581.154 112.653L581.154 37.6533L543.154 75.1067Z" fill="#807552"/>
<path d="M429.5 48.9092L450.718 69.9092L408.282 69.9092L429.5 48.9092Z" fill="#A6A06E"/>
<path d="M656.445 113.053L694.55 150.553L618.34 150.553L656.445 113.053Z" fill="#A6A06E" fill-opacity="0.5"/>
<path d="M429.482 113.053L467.588 150.553L391.377 150.553L429.482 113.053Z" fill="#BCB679"/>
<path d="M657 49.9092L676.919 69.4092L637.081 69.4092L657 49.9092Z" fill="#BCB679"/>
<path d="M316 150.706L354.105 188.206L277.895 188.206L316 150.706Z" fill="#BCB679"/>
<path d="M467.658 150.706L505.763 188.206L429.553 188.206L467.658 150.706Z" fill="#BCB679" fill-opacity="0.5"/>
<path d="M618.316 292.706L656.422 330.206L580.211 330.206L618.316 292.706Z" fill="#BCB679" fill-opacity="0.5"/>
<path d="M595.5 217.909L617.584 239.659L573.416 239.659L595.5 217.909Z" fill="#BCB679" fill-opacity="0.5"/>
<path d="M585.5 157.909L607.584 179.659L563.416 179.659L585.5 157.909Z" fill="#BCB679" fill-opacity="0.5"/>
<path d="M700.5 309.909L722.584 331.659L678.416 331.659L700.5 309.909Z" fill="#BCB679" fill-opacity="0.5"/>
<path d="M694.621 75.3994L732.726 112.899L656.516 112.899L694.621 75.3994Z" fill="#BCB679"/>
</svg>
