<svg width="815" height="95" viewBox="0 0 815 95" fill="none" xmlns="http://www.w3.org/2000/svg">
<path d="M786.5 23L761.818 47H811.182L786.5 23Z" fill="#CFC596"/>
<path d="M737.5 51L712.818 75H762.182L737.5 51Z" fill="#A6A06E"/>
<path d="M152.88 31.7964L128.198 55.7964H177.562L152.88 31.7964Z" fill="#CFC596"/>
<path d="M94.3799 38.7964L63.203 69.5464H125.557L94.3799 38.7964Z" fill="#BCB679"/>
<path d="M786.5 71L811.182 47L761.818 47L786.5 71Z" fill="#807552"/>
<path d="M440 66L462.517 43.5L417.483 43.5L440 66Z" fill="#807552"/>
<path d="M44 60L82.1051 22.5L5.89488 22.5L44 60Z" fill="#A0985F"/>
<path d="M786 70.5304L762 46L762 95L786 70.5304Z" fill="#A08F6C"/>
<path d="M574.968 45L601 72L549 72L574.968 45Z" fill="#A08F6C" fill-opacity="0.5"/>
<path d="M786 24.0298L762 -1.04907e-06L762 48L786 24.0298Z" fill="#A08F6C"/>
<path d="M737 51.0298L762 27L762 75L737 51.0298Z" fill="#807552"/>
<path d="M677.62 64.2036L715.725 26.7036L639.515 26.7036L677.62 64.2036Z" fill="#BCB679"/>
<path d="M737.5 51L762.182 27L712.818 27L737.5 51Z" fill="#BCB679"/>
<path d="M308 61L346.105 23.5L269.895 23.5L308 61Z" fill="#BCB679" fill-opacity="0.5"/>
<path d="M177.38 55.7964L201.629 31.7964L153.131 31.7964L177.38 55.7964Z" fill="#BCB679"/>
<path d="M380.38 71.7964L404.629 47.7964L356.131 47.7964L380.38 71.7964Z" fill="#BCB679"/>
</svg>
