<svg width="739" height="407" viewBox="0 0 739 407" fill="none" xmlns="http://www.w3.org/2000/svg">
<path d="M347.505 331.51L385.774 369.163H309.235L347.505 331.51Z" fill="#BEB385"/>
<path d="M347.315 256.204L385.42 293.704H309.21L347.315 256.204Z" fill="#CFC596"/>
<path d="M598.5 264L624.914 289.5H572.086L598.5 264Z" fill="#CFC596"/>
<path d="M120.352 331.51L158.457 369.01H82.2464L120.352 331.51Z" fill="#CFC596"/>
<path d="M233.833 293.856L271.938 331.356H195.728L233.833 293.856Z" fill="#CFC596"/>
<path d="M83.1758 151.856L121.281 189.356H45.0707L83.1758 151.856Z" fill="#CFC596"/>
<path d="M120 264L145.981 290.25H94.0192L120 264Z" fill="#CFC596"/>
<path d="M71 202L99.5788 229.75H42.4212L71 202Z" fill="#CFC596"/>
<path d="M88 0L116.579 27.75H59.4212L88 0Z" fill="#CFC596"/>
<path d="M309.139 293.856L347.244 331.356H271.034L309.139 293.856Z" fill="#A6A06E"/>
<path d="M422.62 256.204L460.725 293.704H384.515L422.62 256.204Z" fill="#A6A06E"/>
<path d="M195.657 331.51L233.762 369.01H157.552L195.657 331.51Z" fill="#A6A06E"/>
<path d="M309.139 218.551L347.244 256.051H271.034L309.139 218.551Z" fill="#CFC596"/>
<path d="M82.1758 293.856L120.281 331.356H44.0707L82.1758 293.856Z" fill="#CFC596"/>
<path d="M195.847 256.204L234.117 293.856H157.578L195.847 256.204Z" fill="#BCB679"/>
<path d="M45 114.204L83.1051 151.704H6.89488L45 114.204Z" fill="#BCB679"/>
<path d="M347.694 331.51L309.589 294.01L385.799 294.01L347.694 331.51Z" fill="#807552"/>
<path d="M511.38 344.204L473.275 306.704L549.485 306.704L511.38 344.204Z" fill="#807552"/>
<path d="M561 400L538.483 377.5L583.517 377.5L561 400Z" fill="#807552"/>
<path d="M234.213 369.162L196.108 331.662L272.318 331.662L234.213 369.162Z" fill="#807552"/>
<path d="M120.731 331.51L82.6261 294.01L158.836 294.01L120.731 331.51Z" fill="#A0985F"/>
<path d="M234 282L214.947 262.5L253.053 262.5L234 282Z" fill="#A0985F"/>
<path d="M83.5554 151.856L45.4503 114.356L121.661 114.356L83.5554 151.856Z" fill="#A0985F"/>
<path d="M347.243 331.709L385.243 294.162L385.243 369.162L347.243 331.709Z" fill="#A08F6C"/>
<path d="M233.761 369.362L271.761 331.815L271.761 406.815L233.761 369.362Z" fill="#A08F6C"/>
<path d="M309.329 369.362L271.329 331.815L271.329 406.815L309.329 369.362Z" fill="#A08F6C" fill-opacity="0.5"/>
<path d="M713.032 330L687 357L739 357L713.032 330Z" fill="#A08F6C" fill-opacity="0.5"/>
<path d="M422.81 331.709L384.81 294.162L384.81 369.162L422.81 331.709Z" fill="#BCB679"/>
<path d="M347.243 256.497L385.243 218.95L385.243 293.95L347.243 256.497Z" fill="#A08F6C"/>
<path d="M233.761 294.15L271.761 256.604L271.761 331.604L233.761 294.15Z" fill="#A08F6C"/>
<path d="M83.104 152.15L121.104 114.604L121.104 189.604L83.104 152.15Z" fill="#A08F6C"/>
<path d="M82.3657 369.456L44.3657 331.909L44.3657 406.909L82.3657 369.456Z" fill="#A08F6C" fill-opacity="0.5"/>
<path d="M422.81 256.497L384.81 218.95L384.81 293.95L422.81 256.497Z" fill="#807552"/>
<path d="M195.847 331.802L157.847 294.256L157.847 369.256L195.847 331.802Z" fill="#807552"/>
<path d="M309.5 358L288.282 337L330.718 337L309.5 358Z" fill="#A6A06E"/>
<path d="M82.5554 293.856L44.4503 256.356L120.661 256.356L82.5554 293.856Z" fill="#A6A06E" fill-opacity="0.5"/>
<path d="M309.518 293.856L271.413 256.356L347.624 256.356L309.518 293.856Z" fill="#BCB679"/>
<path d="M82 357L62.0814 337.5L101.919 337.5L82 357Z" fill="#BCB679"/>
<path d="M423 256.204L384.895 218.704L461.105 218.704L423 256.204Z" fill="#BCB679"/>
<path d="M271.343 256.204L233.238 218.704L309.448 218.704L271.343 256.204Z" fill="#BCB679" fill-opacity="0.5"/>
<path d="M120.685 114.204L82.5802 76.7036L158.79 76.7036L120.685 114.204Z" fill="#BCB679" fill-opacity="0.5"/>
<path d="M143.5 189L121.416 167.25L165.584 167.25L143.5 189Z" fill="#BCB679" fill-opacity="0.5"/>
<path d="M153.5 249L131.416 227.25L175.584 227.25L153.5 249Z" fill="#BCB679" fill-opacity="0.5"/>
<path d="M38.5 97L16.4164 75.25L60.5836 75.25L38.5 97Z" fill="#BCB679" fill-opacity="0.5"/>
<path d="M44.3796 331.51L6.27452 294.01L82.4848 294.01L44.3796 331.51Z" fill="#BCB679"/>
</svg>
