<svg width="298" height="199" viewBox="0 0 298 199" fill="none" xmlns="http://www.w3.org/2000/svg">
<path d="M107.285 161.494L125.927 179.836L88.6419 179.836L107.285 161.494Z" fill="#BEB385"/>
<path d="M107.285 124.809L125.927 143.152L88.6419 143.152L107.285 124.809Z" fill="#CFC596"/>
<path d="M229.557 128.606L242.424 141.028L216.69 141.028L229.557 128.606Z" fill="#CFC596"/>
<path d="M-3.27979 161.494L15.363 179.837L-21.9226 179.837L-3.27979 161.494Z" fill="#CFC596"/>
<path d="M52.0034 143.152L70.6462 161.494L33.3606 161.494L52.0034 143.152Z" fill="#CFC596"/>
<path d="M-3.54189 128.608L9.11451 141.395L-16.1983 141.395L-3.54189 128.608Z" fill="#CFC596"/>
<path d="M88.687 143.152L107.33 161.494L70.0442 161.494L88.687 143.152Z" fill="#A6A06E"/>
<path d="M33.4058 161.494L52.0486 179.836L14.763 179.836L33.4058 161.494Z" fill="#A6A06E"/>
<path d="M33.4058 124.809L52.0486 143.152L14.763 143.152L33.4058 124.809Z" fill="#BCB679"/>
<path d="M107.286 161.492L88.6429 143.15L125.928 143.15L107.286 161.492Z" fill="#807552"/>
<path d="M187.024 167.677L168.381 149.335L205.667 149.335L187.024 167.677Z" fill="#807552"/>
<path d="M211.287 194.859L200.318 183.898L222.256 183.898L211.287 194.859Z" fill="#807552"/>
<path d="M52.0024 179.836L33.3597 161.494L70.6452 161.494L52.0024 179.836Z" fill="#807552"/>
<path d="M-3.2788 161.494L-21.9216 143.152L15.364 143.152L-3.2788 161.494Z" fill="#A0985F"/>
<path d="M51.9918 137.375L42.7104 127.876L61.2732 127.876L51.9918 137.375Z" fill="#A0985F"/>
<path d="M107.158 161.492L125.883 143.104L125.883 179.835L107.158 161.492Z" fill="#A08F6C"/>
<path d="M51.875 179.836L70.5995 161.448L70.5995 198.179L51.875 179.836Z" fill="#A08F6C"/>
<path d="M88.6875 179.836L69.963 161.448L69.963 198.179L88.6875 179.836Z" fill="#A08F6C" fill-opacity="0.5"/>
<path d="M285.35 160.758L272.668 173.911L298 173.911L285.35 160.758Z" fill="#A08F6C" fill-opacity="0.5"/>
<path d="M143.969 161.492L125.244 143.104L125.244 179.835L143.969 161.492Z" fill="#BCB679"/>
<path d="M51.875 143.197L70.5995 124.809L70.5995 161.539L51.875 143.197Z" fill="#A08F6C"/>
<path d="M33.4063 161.539L14.6817 143.151L14.6817 179.882L33.4063 161.539Z" fill="#807552"/>
<path d="M88.772 174.398L78.4359 164.168L99.108 164.168L88.772 174.398Z" fill="#A6A06E"/>
<path d="M88.688 143.152L70.0452 124.809L107.331 124.809L88.688 143.152Z" fill="#BCB679"/>
<path d="M-3.30224 55.6344L-21.945 37.292L15.3406 37.292L-3.30224 55.6344Z" fill="#BCB679" fill-opacity="0.5"/>
<path d="M7.90397 92.0696L-2.85397 81.4742L18.6619 81.4742L7.90397 92.0696Z" fill="#BCB679" fill-opacity="0.5"/>
<path d="M12.777 121.299L2.01908 110.704L23.535 110.704L12.777 121.299Z" fill="#BCB679" fill-opacity="0.5"/>
</svg>
