<svg width="1280" height="502" viewBox="0 0 1280 502" fill="none" xmlns="http://www.w3.org/2000/svg">
<path d="M408.5 204L433.182 228H383.818L408.5 204Z" fill="#CFC596"/>
<path d="M491.5 0L517.914 25.5H465.086L491.5 0Z" fill="#CFC596"/>
<path d="M408 64.5L433.5 38.0862L433.5 90.9138L408 64.5Z" fill="#CFC596"/>
<path d="M1184 218.652L1222.11 256.152H1145.89L1184 218.652Z" fill="#CFC596"/>
<path d="M561 29L586.981 55.25H535.019L561 29Z" fill="#CFC596"/>
<path d="M256 0L284.579 27.75H227.421L256 0Z" fill="#CFC596"/>
<path d="M441 430L469.579 457.75H412.421L441 430Z" fill="#CFC596"/>
<path d="M457.5 232L482.182 256H432.818L457.5 232Z" fill="#A6A06E"/>
<path d="M255.5 216L280.182 240H230.818L255.5 216Z" fill="#CFC596"/>
<path d="M314 223L345.177 253.75H282.823L314 223Z" fill="#BCB679"/>
<path d="M408.5 252L383.818 228L433.182 228L408.5 252Z" fill="#807552"/>
<path d="M455.38 440.204L417.275 402.704L493.485 402.704L455.38 440.204Z" fill="#807552"/>
<path d="M755 247L732.483 224.5L777.517 224.5L755 247Z" fill="#807552"/>
<path d="M364.38 244.204L326.275 206.704L402.485 206.704L364.38 244.204Z" fill="#A0985F"/>
<path d="M409 251.53L433 227L433 276L409 251.53Z" fill="#A08F6C"/>
<path d="M620.032 226L594 253L646 253L620.032 226Z" fill="#A08F6C" fill-opacity="0.5"/>
<path d="M409 205.03L433 181L433 229L409 205.03Z" fill="#A08F6C"/>
<path d="M1183.93 218.946L1221.93 181.399L1221.93 256.399L1183.93 218.946Z" fill="#A08F6C"/>
<path d="M458 232.03L433 208L433 256L458 232.03Z" fill="#807552"/>
<path d="M1279.44 306.946L1241.44 269.399L1241.44 344.399L1279.44 306.946Z" fill="#807552"/>
<path d="M517.38 245.204L479.275 207.704L555.485 207.704L517.38 245.204Z" fill="#BCB679"/>
<path d="M457.5 232L432.818 208L482.182 208L457.5 232Z" fill="#BCB679"/>
<path d="M100.38 245.204L62.2745 207.704L138.485 207.704L100.38 245.204Z" fill="#BCB679" fill-opacity="0.5"/>
<path d="M414.38 501.204L376.275 463.704L452.485 463.704L414.38 501.204Z" fill="#BCB679" fill-opacity="0.5"/>
<path d="M1244.32 255.796L1222.24 234.046L1266.41 234.046L1244.32 255.796Z" fill="#BCB679" fill-opacity="0.5"/>
<path d="M338.5 47L316.416 25.25L360.584 25.25L338.5 47Z" fill="#BCB679" fill-opacity="0.5"/>
<path d="M363.5 459L341.416 437.25L385.584 437.25L363.5 459Z" fill="#BCB679" fill-opacity="0.5"/>
<path d="M231 240L206.751 216L255.249 216L231 240Z" fill="#BCB679"/>
<path d="M28 256L3.75129 232L52.2487 232L28 256Z" fill="#BCB679"/>
</svg>
