<svg width="714" height="407" viewBox="0 0 714 407" fill="none" xmlns="http://www.w3.org/2000/svg">
<path d="M391.495 331.51L353.226 369.163H429.765L391.495 331.51Z" fill="#BEB385"/>
<path d="M391.685 256.204L353.58 293.704H429.79L391.685 256.204Z" fill="#CFC596"/>
<path d="M140.5 264L114.086 289.5H166.914L140.5 264Z" fill="#CFC596"/>
<path d="M618.648 331.51L580.543 369.01H656.754L618.648 331.51Z" fill="#CFC596"/>
<path d="M505.167 293.856L467.062 331.356H543.272L505.167 293.856Z" fill="#CFC596"/>
<path d="M655.824 151.856L617.719 189.356H693.929L655.824 151.856Z" fill="#CFC596"/>
<path d="M619 264L593.019 290.25H644.981L619 264Z" fill="#CFC596"/>
<path d="M668 202L639.421 229.75H696.579L668 202Z" fill="#CFC596"/>
<path d="M651 0L622.421 27.75H679.579L651 0Z" fill="#CFC596"/>
<path d="M429.861 293.856L391.756 331.356H467.966L429.861 293.856Z" fill="#A6A06E"/>
<path d="M316.38 256.204L278.275 293.704H354.485L316.38 256.204Z" fill="#A6A06E"/>
<path d="M543.343 331.51L505.238 369.01H581.448L543.343 331.51Z" fill="#A6A06E"/>
<path d="M429.861 218.551L391.756 256.051H467.966L429.861 218.551Z" fill="#CFC596"/>
<path d="M656.824 293.856L618.719 331.356H694.929L656.824 293.856Z" fill="#CFC596"/>
<path d="M543.153 256.204L504.883 293.856H581.422L543.153 256.204Z" fill="#BCB679"/>
<path d="M694 114.204L655.895 151.704H732.105L694 114.204Z" fill="#BCB679"/>
<path d="M391.306 331.51L429.411 294.01L353.201 294.01L391.306 331.51Z" fill="#807552"/>
<path d="M227.62 344.204L265.725 306.704L189.515 306.704L227.62 344.204Z" fill="#807552"/>
<path d="M178 400L200.517 377.5L155.483 377.5L178 400Z" fill="#807552"/>
<path d="M504.787 369.162L542.892 331.662L466.682 331.662L504.787 369.162Z" fill="#807552"/>
<path d="M618.269 331.51L656.374 294.01L580.164 294.01L618.269 331.51Z" fill="#A0985F"/>
<path d="M505 282L524.053 262.5L485.947 262.5L505 282Z" fill="#A0985F"/>
<path d="M655.445 151.856L693.55 114.356L617.339 114.356L655.445 151.856Z" fill="#A0985F"/>
<path d="M391.757 331.709L353.757 294.162L353.757 369.162L391.757 331.709Z" fill="#A08F6C"/>
<path d="M505.239 369.362L467.239 331.815L467.239 406.815L505.239 369.362Z" fill="#A08F6C"/>
<path d="M429.671 369.362L467.671 331.815L467.671 406.815L429.671 369.362Z" fill="#A08F6C" fill-opacity="0.5"/>
<path d="M25.9677 330L52 357L-3.51915e-06 357L25.9677 330Z" fill="#A08F6C" fill-opacity="0.5"/>
<path d="M316.19 331.709L354.19 294.162L354.19 369.162L316.19 331.709Z" fill="#BCB679"/>
<path d="M391.757 256.497L353.757 218.95L353.757 293.95L391.757 256.497Z" fill="#A08F6C"/>
<path d="M505.239 294.15L467.239 256.604L467.239 331.604L505.239 294.15Z" fill="#A08F6C"/>
<path d="M655.896 152.15L617.896 114.604L617.896 189.604L655.896 152.15Z" fill="#A08F6C"/>
<path d="M656.634 369.456L694.634 331.909L694.634 406.909L656.634 369.456Z" fill="#A08F6C" fill-opacity="0.5"/>
<path d="M316.19 256.497L354.19 218.95L354.19 293.95L316.19 256.497Z" fill="#807552"/>
<path d="M543.153 331.802L581.153 294.256L581.153 369.256L543.153 331.802Z" fill="#807552"/>
<path d="M429.5 358L450.718 337L408.282 337L429.5 358Z" fill="#A6A06E"/>
<path d="M656.445 293.856L694.55 256.356L618.339 256.356L656.445 293.856Z" fill="#A6A06E" fill-opacity="0.5"/>
<path d="M429.482 293.856L467.587 256.356L391.376 256.356L429.482 293.856Z" fill="#BCB679"/>
<path d="M657 357L676.919 337.5L637.081 337.5L657 357Z" fill="#BCB679"/>
<path d="M316 256.204L354.105 218.704L277.895 218.704L316 256.204Z" fill="#BCB679"/>
<path d="M467.657 256.204L505.762 218.704L429.552 218.704L467.657 256.204Z" fill="#BCB679" fill-opacity="0.5"/>
<path d="M618.315 114.204L656.42 76.7036L580.21 76.7036L618.315 114.204Z" fill="#BCB679" fill-opacity="0.5"/>
<path d="M595.5 189L617.584 167.25L573.416 167.25L595.5 189Z" fill="#BCB679" fill-opacity="0.5"/>
<path d="M585.5 249L607.584 227.25L563.416 227.25L585.5 249Z" fill="#BCB679" fill-opacity="0.5"/>
<path d="M700.5 97L722.584 75.25L678.416 75.25L700.5 97Z" fill="#BCB679" fill-opacity="0.5"/>
<path d="M694.62 331.51L732.725 294.01L656.515 294.01L694.62 331.51Z" fill="#BCB679"/>
</svg>
