<svg width="146" height="198" viewBox="0 0 146 198" fill="none" xmlns="http://www.w3.org/2000/svg">
<path d="M43 98L10.091 129.5H75.909L43 98Z" fill="#A6A06E"/>
<path d="M55 25L22.091 56.5H87.909L55 25Z" fill="#CFC596"/>
<path d="M41.4886 160.047L83.4886 122L83.4886 198L41.4886 160.047Z" fill="#A08F6C"/>
<path d="M41.4886 99.2406L83.4886 61.1934L83.4886 137.193L41.4886 99.2406Z" fill="#A08F6C"/>
<path d="M43 160.684L75.909 129.184L10.091 129.184L43 160.684Z" fill="#A6A06E"/>
<path d="M38 42L70.909 10.5L5.09103 10.5L38 42Z" fill="#A6A06E"/>
<path d="M55 88.2734L87.909 56.7734L22.091 56.7734L55 88.2734Z" fill="#BCB679"/>
<path d="M108 56L140.909 24.5L75.091 24.5L108 56Z" fill="#BCB679"/>
</svg>
