<svg width="212" height="71" viewBox="0 0 212 71" fill="none" xmlns="http://www.w3.org/2000/svg">
<path d="M97.5324 17.1895L115.979 35.1263H79.0861L97.5324 17.1895Z" fill="#CFC596"/>
<path d="M134.154 38.1157L152.6 56.0526H115.707L134.154 38.1157Z" fill="#A6A06E"/>
<path d="M26.9053 31.3896L50.2059 54.3712L3.60462 54.3712L26.9053 31.3896Z" fill="#BCB679"/>
<path d="M64.5572 47.2363L36.0786 19.21L93.0358 19.21L64.5572 47.2363Z" fill="#A0985F"/>
<path d="M97.9043 52.7122L115.841 34.3789L115.841 71L97.9043 52.7122Z" fill="#A08F6C"/>
<path d="M97.9043 17.959L115.841 -0.000149557L115.841 35.8735L97.9043 17.959Z" fill="#A08F6C"/>
<path d="M134.525 38.1382L115.841 20.179L115.841 56.0527L134.525 38.1382Z" fill="#807552"/>
<path d="M178.905 47.9839L150.426 19.9576L207.383 19.9576L178.905 47.9839Z" fill="#BCB679"/>
<path d="M134.153 38.1157L115.707 20.1789L152.599 20.1789L134.153 38.1157Z" fill="#BCB679"/>
</svg>
