<svg width="364" height="141" viewBox="0 0 364 141" fill="none" xmlns="http://www.w3.org/2000/svg">
<path d="M46 128L84.1051 90.5L7.89488 90.5L46 128Z" fill="#A6A06E"/>
<path d="M119 128L157.105 90.5L80.8949 90.5L119 128Z" fill="#A6A06E"/>
<path d="M110 91L148.105 53.5L71.8949 53.5L110 91Z" fill="#A6A06E"/>
<path d="M193 128L231.105 90.5L154.895 90.5L193 128Z" fill="#A6A06E"/>
<path d="M184 91L222.105 53.5L145.895 53.5L184 91Z" fill="#A6A06E"/>
<path d="M83 90L44.8949 127.5L121.105 127.5L83 90Z" fill="#BDB076"/>
<path d="M157 90.3477L118.895 127.848L195.105 127.848L157 90.3477Z" fill="#BDB076"/>
<path d="M146 53.3477L107.895 90.8477L184.105 90.8477L146 53.3477Z" fill="#BDB076"/>
<path d="M230 90.3477L191.895 127.848L268.105 127.848L230 90.3477Z" fill="#BDB076"/>
<path d="M222 53.3477L183.895 90.8477L260.105 90.8477L222 53.3477Z" fill="#BDB076"/>
<path d="M33 82.2036L61.5788 54.4536L4.42116 54.4536L33 82.2036Z" fill="#CFC596"/>
<path d="M309 140L337.579 112.25L280.421 112.25L309 140Z" fill="#CFC596"/>
<path d="M75 7.6932e-06L36.8949 37.5L113.105 37.5L75 7.6932e-06Z" fill="#BCB679" fill-opacity="0.5"/>
<path d="M320 50L281.895 87.5L358.105 87.5L320 50Z" fill="#BCB679" fill-opacity="0.5"/>
<path d="M167.5 12L145.416 33.75L189.584 33.75L167.5 12Z" fill="#BCB679" fill-opacity="0.5"/>
</svg>
