<svg width="46" height="46" viewBox="0 0 46 46" fill="none" xmlns="http://www.w3.org/2000/svg">
<path d="M25.1213 20.8787C26.2929 22.0502 26.2929 23.9497 25.1213 25.1213L6.02944 44.2132C4.85786 45.3848 2.95837 45.3848 1.7868 44.2132C0.615223 43.0416 0.615223 41.1422 1.7868 39.9706L18.7574 23L1.7868 6.02945C0.615223 4.85788 0.615223 2.95839 1.7868 1.78681C2.95837 0.615239 4.85786 0.615237 6.02944 1.78681L25.1213 20.8787ZM21 20L23 20L23 26L21 26L21 20Z" fill="#1C1B17"/>
<path d="M45.1213 20.8787C46.2929 22.0502 46.2929 23.9497 45.1213 25.1213L26.0294 44.2132C24.8579 45.3848 22.9584 45.3848 21.7868 44.2132C20.6152 43.0416 20.6152 41.1422 21.7868 39.9706L38.7574 23L21.7868 6.02945C20.6152 4.85788 20.6152 2.95839 21.7868 1.78681C22.9584 0.615239 24.8579 0.615237 26.0294 1.78681L45.1213 20.8787ZM41 20L43 20L43 26L41 26L41 20Z" fill="#1C1B17"/>
</svg>
