<svg width="32" height="32" viewBox="0 0 32 32" fill="none" xmlns="http://www.w3.org/2000/svg">
<path d="M28.7401 5.33358C28.6189 5.3211 28.4968 5.3211 28.3756 5.33358H3.48674C3.32722 5.33604 3.16876 5.35996 3.01562 5.40469L15.8601 18.1958L28.7401 5.33358Z" fill="#BCB679"/>
<path d="M30.0526 6.56836L17.1104 19.4572C16.7773 19.7884 16.3267 19.9742 15.8571 19.9742C15.3874 19.9742 14.9368 19.7884 14.6037 19.4572L1.77707 6.66614C1.73763 6.81106 1.71673 6.9604 1.71484 7.11058V24.8884C1.71484 25.3599 1.90214 25.812 2.23554 26.1454C2.56894 26.4788 3.02113 26.6661 3.49262 26.6661H28.3815C28.853 26.6661 29.3052 26.4788 29.6386 26.1454C29.972 25.812 30.1593 25.3599 30.1593 24.8884V7.11058C30.1522 6.92539 30.1162 6.74244 30.0526 6.56836ZM4.7104 24.8884H3.47484V23.6172L9.93707 17.2084L11.1904 18.4617L4.7104 24.8884ZM28.3637 24.8884H27.1193L20.6393 18.4617L21.8926 17.2084L28.3548 23.6172L28.3637 24.8884Z" fill="#BCB679"/>
</svg>
