<svg width="187" height="360" viewBox="0 0 187 360" fill="none" xmlns="http://www.w3.org/2000/svg">
<path d="M24.7305 190.715L6.38806 172.072L6.38806 209.358L24.7305 190.715Z" fill="#BEB385"/>
<path d="M61.416 190.715L43.0736 172.072L43.0736 209.358L61.416 190.715Z" fill="#CFC596"/>
<path d="M57.6191 68.4437L45.1969 55.5763L45.1969 81.311L57.6191 68.4437Z" fill="#CFC596"/>
<path d="M24.7305 301.279L6.38806 282.636L6.38806 319.922L24.7305 301.279Z" fill="#CFC596"/>
<path d="M43.0723 245.997L24.7299 227.354L24.7299 264.64L43.0723 245.997Z" fill="#CFC596"/>
<path d="M112.248 319.389L93.9056 300.746L93.9056 338.032L112.248 319.389Z" fill="#CFC596"/>
<path d="M57.6172 301.542L44.8296 288.886L44.8296 314.199L57.6172 301.542Z" fill="#CFC596"/>
<path d="M87.8203 325.413L74.302 311.491L74.302 339.335L87.8203 325.413Z" fill="#CFC596"/>
<path d="M186.225 317.131L172.706 303.209L172.706 331.053L186.225 317.131Z" fill="#CFC596"/>
<path d="M43.0723 209.312L24.7299 190.67L24.7299 227.955L43.0723 209.312Z" fill="#A6A06E"/>
<path d="M24.7305 264.594L6.38806 245.951L6.38806 283.237L24.7305 264.594Z" fill="#A6A06E"/>
<path d="M43.0723 319.876L24.7299 301.234L24.7299 338.519L43.0723 319.876Z" fill="#CFC596"/>
<path d="M61.416 264.594L43.0736 245.951L43.0736 283.237L61.416 264.594Z" fill="#BCB679"/>
<path d="M130.59 337.986L112.247 319.343L112.247 356.629L130.59 337.986Z" fill="#BCB679"/>
<path d="M24.7324 190.715L43.0748 209.358L43.0748 172.072L24.7324 190.715Z" fill="#807552"/>
<path d="M18.5469 110.977L36.8893 129.619L36.8893 92.3338L18.5469 110.977Z" fill="#807552"/>
<path d="M-8.63281 86.712L2.32795 97.6809L2.32795 75.7432L-8.63281 86.712Z" fill="#807552"/>
<path d="M6.38867 245.997L24.7311 264.64L24.7311 227.354L6.38867 245.997Z" fill="#807552"/>
<path d="M24.7305 301.279L43.0729 319.922L43.0729 282.636L24.7305 301.279Z" fill="#A0985F"/>
<path d="M48.8496 246.008L58.3489 255.289L58.3489 236.727L48.8496 246.008Z" fill="#A0985F"/>
<path d="M112.248 319.389L130.59 338.032L130.59 300.746L112.248 319.389Z" fill="#A0985F"/>
<path d="M24.733 190.842L43.1211 172.118L6.39063 172.118L24.733 190.842Z" fill="#A08F6C"/>
<path d="M6.38928 246.125L24.7773 227.4L-11.9531 227.4L6.38928 246.125Z" fill="#A08F6C"/>
<path d="M6.38928 209.312L24.7773 228.037L-11.9531 228.037L6.38928 209.312Z" fill="#A08F6C" fill-opacity="0.5"/>
<path d="M25.4668 12.65L12.3139 25.3315L12.3139 -3.42961e-05L25.4668 12.65Z" fill="#A08F6C" fill-opacity="0.5"/>
<path d="M24.733 154.03L43.1211 172.755L6.39062 172.755L24.733 154.03Z" fill="#BCB679"/>
<path d="M43.028 246.125L61.416 227.4L24.6855 227.4L43.028 246.125Z" fill="#A08F6C"/>
<path d="M112.204 319.517L130.592 300.792L93.8613 300.792L112.204 319.517Z" fill="#A08F6C"/>
<path d="M6.34241 319.876L24.7304 338.601L-12 338.601L6.34241 319.876Z" fill="#A08F6C" fill-opacity="0.5"/>
<path d="M24.6862 264.594L43.0742 283.319L6.34375 283.319L24.6862 264.594Z" fill="#807552"/>
<path d="M93.86 337.986L112.248 356.711L75.5176 356.711L93.86 337.986Z" fill="#807552"/>
<path d="M11.8262 209.229L22.0562 219.565L22.0562 198.893L11.8262 209.229Z" fill="#A6A06E"/>
<path d="M43.0723 319.876L61.4147 338.519L61.4147 301.234L43.0723 319.876Z" fill="#A6A06E" fill-opacity="0.5"/>
<path d="M43.0723 209.312L61.4147 227.955L61.4147 190.67L43.0723 209.312Z" fill="#BCB679"/>
<path d="M12.3145 320.054L21.8138 329.757L21.8138 310.351L12.3145 320.054Z" fill="#BCB679"/>
<path d="M130.59 301.301L148.932 319.944L148.932 282.659L130.59 301.301Z" fill="#BCB679" fill-opacity="0.5"/>
<path d="M94.1563 290.095L104.752 300.853L104.752 279.337L94.1563 290.095Z" fill="#BCB679" fill-opacity="0.5"/>
<path d="M64.9258 285.223L75.5212 295.981L75.5212 274.465L64.9258 285.223Z" fill="#BCB679" fill-opacity="0.5"/>
<path d="M138.971 341.245L149.566 352.003L149.566 330.487L138.971 341.245Z" fill="#BCB679" fill-opacity="0.5"/>
<path d="M24.7305 338.473L43.0729 357.116L43.0729 319.83L24.7305 338.473Z" fill="#BCB679"/>
</svg>
