<svg width="154" height="111" viewBox="0 0 154 111" fill="none" xmlns="http://www.w3.org/2000/svg">
<path d="M132 86.1052L112.947 104.776L151.053 104.776L132 86.1052Z" fill="#CFC596"/>
<path d="M66 86.1052L46.9474 104.776L85.0526 104.776L66 86.1052Z" fill="#CFC596"/>
<path d="M22 86.1052L2.94744 104.776L41.0526 104.776L22 86.1052Z" fill="#CFC596"/>
<path d="M103 109L128.115 84.3879L77.8853 84.3879L103 109Z" fill="#A0985F"/>
<path d="M148.15 63.565L125.688 41.0744L125.688 85.9998L148.15 63.565Z" fill="#A08F6C"/>
<path d="M144.299 23.1043L126.97 3.0952L126.97 43.1133L144.299 23.1043Z" fill="#BCB679"/>
<path d="M137.881 43.6416L148.47 55.8694L148.47 31.4139L137.881 43.6416Z" fill="#BCB679"/>
<path d="M43.8801 95.9998L56.1079 85.4102H31.6524L43.8801 95.9998Z" fill="#BCB679"/>
</svg>
