<svg width="154" height="111" viewBox="0 0 154 111" fill="none" xmlns="http://www.w3.org/2000/svg">
<path d="M22 24.8948L41.0526 6.22373L2.94744 6.22372L22 24.8948Z" fill="#CFC596"/>
<path d="M88 24.8948L107.053 6.22373L68.9474 6.22372L88 24.8948Z" fill="#CFC596"/>
<path d="M132 24.8948L151.053 6.22373L112.947 6.22372L132 24.8948Z" fill="#CFC596"/>
<path d="M51 2.00024L25.8853 26.6121H76.1147L51 2.00024Z" fill="#A0985F"/>
<path d="M5.84961 47.435L28.3123 69.9256L28.3123 25.0002L5.84961 47.435Z" fill="#A08F6C"/>
<path d="M9.70117 87.8957L27.0295 107.905L27.0295 67.8867L9.70117 87.8957Z" fill="#BCB679"/>
<path d="M16.1191 67.3584L5.52959 55.1306L5.52959 79.5861L16.1191 67.3584Z" fill="#BCB679"/>
<path d="M110.12 15.0002L97.8921 25.5898L122.348 25.5898L110.12 15.0002Z" fill="#BCB679"/>
</svg>
