<svg width="600" height="168" viewBox="0 0 600 168" fill="none" xmlns="http://www.w3.org/2000/svg">
<path d="M320.5 45L288.89 75.75H352.11L320.5 45Z" fill="#CFC596"/>
<path d="M115.5 50L94.2824 71H136.718L115.5 50Z" fill="#CFC596"/>
<path d="M501 106L469.823 136.75H532.177L501 106Z" fill="#CFC596"/>
<path d="M408 76L376.823 106.75H439.177L408 76Z" fill="#CFC596"/>
<path d="M501.5 50L480.282 71.75H522.718L501.5 50Z" fill="#CFC596"/>
<path d="M542 0L518.617 23.25H565.383L542 0Z" fill="#CFC596"/>
<path d="M352.5 75L321.756 105.75H383.244L352.5 75Z" fill="#A6A06E"/>
<path d="M260 45L228.823 75.75H291.177L260 45Z" fill="#A6A06E"/>
<path d="M351.5 15L320.756 45.75H382.244L351.5 15Z" fill="#CFC596"/>
<path d="M532.5 76L500.89 106.75H564.11L532.5 76Z" fill="#CFC596"/>
<path d="M439.5 45L407.89 75.75H471.11L439.5 45Z" fill="#BCB679"/>
<path d="M321.5 106L353.11 75.25L289.89 75.25L321.5 106Z" fill="#807552"/>
<path d="M186.5 117L218.11 86.25L154.89 86.25L186.5 117Z" fill="#807552"/>
<path d="M145.5 162L164.12 144L126.88 144L145.5 162Z" fill="#807552"/>
<path d="M408 137L439.177 106.25L376.823 106.25L408 137Z" fill="#807552"/>
<path d="M501 106L532.177 75.25L469.823 75.25L501 106Z" fill="#A0985F"/>
<path d="M408 65L423.588 49.25L392.412 49.25L408 65Z" fill="#A0985F"/>
<path d="M322 105.538L290 75L290 136L322 105.538Z" fill="#A08F6C"/>
<path d="M409 137.039L377 106L377 168L409 137.039Z" fill="#A08F6C"/>
<path d="M346 137.039L378 106L378 168L346 137.039Z" fill="#A08F6C" fill-opacity="0.5"/>
<path d="M21.4733 105L43 127L-2.88148e-06 127L21.4733 105Z" fill="#A08F6C" fill-opacity="0.5"/>
<path d="M261 105.538L291 75L291 136L261 105.538Z" fill="#BCB679"/>
<path d="M321 45.0385L289 14L289 76L321 45.0385Z" fill="#A08F6C"/>
<path d="M409 75.5379L377 45L377 106L409 75.5379Z" fill="#A08F6C"/>
<path d="M533 137.039L564 106L564 168L533 137.039Z" fill="#A08F6C" fill-opacity="0.5"/>
<path d="M260 45.0385L290 14L290 76L260 45.0385Z" fill="#807552"/>
<path d="M346.5 128L364.254 110.75L328.746 110.75L346.5 128Z" fill="#A6A06E"/>
<path d="M532.5 76L564.11 45.25L500.89 45.25L532.5 76Z" fill="#A6A06E" fill-opacity="0.5"/>
<path d="M351.5 76L382.244 45.25L320.756 45.25L351.5 76Z" fill="#BCB679"/>
<path d="M532.5 127L548.521 110.5L516.479 110.5L532.5 127Z" fill="#BCB679"/>
<path d="M474 38L492.187 20.75L455.813 20.75L474 38Z" fill="#BCB679" fill-opacity="0.5"/>
<path d="M563.5 106L595.11 75.25L531.89 75.25L563.5 106Z" fill="#BCB679"/>
</svg>
