<svg width="182" height="360" viewBox="0 0 182 360" fill="none" xmlns="http://www.w3.org/2000/svg">
<path d="M161.494 190.715L179.837 172.072L179.837 209.358L161.494 190.715Z" fill="#BEB385"/>
<path d="M124.809 190.715L143.151 172.072L143.151 209.358L124.809 190.715Z" fill="#CFC596"/>
<path d="M128.605 68.4437L141.028 55.5763L141.028 81.311L128.605 68.4437Z" fill="#CFC596"/>
<path d="M161.494 301.279L179.837 282.636L179.837 319.922L161.494 301.279Z" fill="#CFC596"/>
<path d="M143.152 245.997L161.495 227.354L161.495 264.64L143.152 245.997Z" fill="#CFC596"/>
<path d="M73.9766 319.389L92.319 300.746L92.319 338.032L73.9766 319.389Z" fill="#CFC596"/>
<path d="M128.607 301.542L141.395 288.886L141.395 314.199L128.607 301.542Z" fill="#CFC596"/>
<path d="M98.4043 325.413L111.923 311.491L111.923 339.335L98.4043 325.413Z" fill="#CFC596"/>
<path d="M-1.91702e-07 317.131L13.5183 303.209L13.5183 331.053L-1.91702e-07 317.131Z" fill="#CFC596"/>
<path d="M143.152 209.312L161.495 190.67L161.495 227.955L143.152 209.312Z" fill="#A6A06E"/>
<path d="M161.494 264.594L179.837 245.951L179.837 283.237L161.494 264.594Z" fill="#A6A06E"/>
<path d="M143.152 319.876L161.495 301.234L161.495 338.519L143.152 319.876Z" fill="#CFC596"/>
<path d="M124.809 264.594L143.151 245.951L143.151 283.237L124.809 264.594Z" fill="#BCB679"/>
<path d="M55.6348 337.986L73.9772 319.343L73.9772 356.629L55.6348 337.986Z" fill="#BCB679"/>
<path d="M161.492 190.715L143.15 209.358L143.15 172.072L161.492 190.715Z" fill="#807552"/>
<path d="M167.678 110.977L149.335 129.619L149.335 92.3338L167.678 110.977Z" fill="#807552"/>
<path d="M179.836 245.997L161.494 264.64L161.494 227.354L179.836 245.997Z" fill="#807552"/>
<path d="M161.494 301.279L143.152 319.922L143.152 282.636L161.494 301.279Z" fill="#A0985F"/>
<path d="M137.375 246.008L127.876 255.289L127.876 236.727L137.375 246.008Z" fill="#A0985F"/>
<path d="M73.9766 319.389L55.6342 338.032L55.6342 300.746L73.9766 319.389Z" fill="#A0985F"/>
<path d="M161.492 190.842L143.104 172.118L179.834 172.118L161.492 190.842Z" fill="#A08F6C"/>
<path d="M179.835 246.125L161.447 227.4L198.178 227.4L179.835 246.125Z" fill="#A08F6C"/>
<path d="M179.835 209.312L161.447 228.037L198.178 228.037L179.835 209.312Z" fill="#A08F6C" fill-opacity="0.5"/>
<path d="M160.758 12.65L173.911 25.3315L173.911 -3.42961e-05L160.758 12.65Z" fill="#A08F6C" fill-opacity="0.5"/>
<path d="M161.492 154.03L143.104 172.755L179.834 172.755L161.492 154.03Z" fill="#BCB679"/>
<path d="M143.197 246.125L124.809 227.4L161.539 227.4L143.197 246.125Z" fill="#A08F6C"/>
<path d="M74.0209 319.517L55.6328 300.792L92.3633 300.792L74.0209 319.517Z" fill="#A08F6C"/>
<path d="M179.882 319.876L161.494 338.601L198.225 338.601L179.882 319.876Z" fill="#A08F6C" fill-opacity="0.5"/>
<path d="M161.538 264.594L143.15 283.319L179.881 283.319L161.538 264.594Z" fill="#807552"/>
<path d="M92.3646 337.986L73.9766 356.711L110.707 356.711L92.3646 337.986Z" fill="#807552"/>
<path d="M174.398 209.229L164.168 219.565L164.168 198.893L174.398 209.229Z" fill="#A6A06E"/>
<path d="M143.152 319.876L124.81 338.519L124.81 301.234L143.152 319.876Z" fill="#A6A06E" fill-opacity="0.5"/>
<path d="M143.152 209.312L124.81 227.955L124.81 190.67L143.152 209.312Z" fill="#BCB679"/>
<path d="M173.91 320.054L164.411 329.757L164.411 310.351L173.91 320.054Z" fill="#BCB679"/>
<path d="M55.6348 301.301L37.2924 319.944L37.2924 282.659L55.6348 301.301Z" fill="#BCB679" fill-opacity="0.5"/>
<path d="M92.0684 290.095L81.473 300.853L81.473 279.337L92.0684 290.095Z" fill="#BCB679" fill-opacity="0.5"/>
<path d="M121.299 285.223L110.703 295.981L110.703 274.465L121.299 285.223Z" fill="#BCB679" fill-opacity="0.5"/>
<path d="M47.2539 341.245L36.6585 352.003L36.6585 330.487L47.2539 341.245Z" fill="#BCB679" fill-opacity="0.5"/>
<path d="M161.494 338.473L143.152 357.116L143.152 319.83L161.494 338.473Z" fill="#BCB679"/>
</svg>
