<svg width="284" height="95" viewBox="0 0 284 95" fill="none" xmlns="http://www.w3.org/2000/svg">
<path d="M152.879 72L128.197 48L177.561 48L152.879 72Z" fill="#CFC596"/>
<path d="M103.879 44L79.1972 20L128.561 20L103.879 44Z" fill="#A6A06E"/>
<path d="M247.379 53L216.202 22.25L278.556 22.25L247.379 53Z" fill="#BCB679"/>
<path d="M197 31.7964L235.105 69.2964L158.895 69.2964L197 31.7964Z" fill="#A0985F"/>
<path d="M152.379 24.4696L128.379 49L128.379 -2.14096e-06L152.379 24.4696Z" fill="#A08F6C"/>
<path d="M152.379 70.9702L128.379 95L128.379 47L152.379 70.9702Z" fill="#A08F6C"/>
<path d="M103.379 43.9702L128.379 68L128.379 20L103.379 43.9702Z" fill="#807552"/>
<path d="M44 30.7964L82.1051 68.2964L5.89488 68.2964L44 30.7964Z" fill="#BCB679"/>
<path d="M103.879 44L128.561 68L79.1972 68L103.879 44Z" fill="#BCB679"/>
</svg>
