<svg width="180" height="403" viewBox="0 0 180 403" fill="none" xmlns="http://www.w3.org/2000/svg">
<path d="M139.716 189.505L160.249 210.375L160.249 168.636L139.716 189.505Z" fill="#CFC596"/>
<path d="M143.968 326.381L157.873 340.785L157.873 311.977L143.968 326.381Z" fill="#CFC596"/>
<path d="M160.249 127.62L180.782 148.489L180.782 106.75L160.249 127.62Z" fill="#CFC596"/>
<path d="M82.8121 45.4619L103.345 66.3314L103.345 24.5923L82.8121 45.4619Z" fill="#CFC596"/>
<path d="M143.968 65.44L158.282 79.6081L158.282 51.2719L143.968 65.44Z" fill="#CFC596"/>
<path d="M110.157 38.7186L125.29 54.3035L125.29 23.1337L110.157 38.7186Z" fill="#CFC596"/>
<path d="M7.86627e-07 47.9891L15.1329 63.574L15.1329 32.4042L7.86627e-07 47.9891Z" fill="#CFC596"/>
<path d="M160.249 168.686L180.782 189.556L180.782 147.817L160.249 168.686Z" fill="#A6A06E"/>
<path d="M160.249 44.916L180.782 65.7855L180.782 24.0464L160.249 44.916Z" fill="#CFC596"/>
<path d="M139.716 106.802L160.249 127.671L160.249 85.9321L139.716 106.802Z" fill="#BCB679"/>
<path d="M62.2788 24.6435L82.8121 45.5131L82.8121 3.77394L62.2788 24.6435Z" fill="#BCB679"/>
<path d="M180.783 189.505L160.249 168.635L160.249 210.374L180.783 189.505Z" fill="#807552"/>
<path d="M187.705 278.768L167.172 257.898L167.172 299.637L187.705 278.768Z" fill="#807552"/>
<path d="M180.783 65.7344L160.249 44.8649L160.249 86.604L180.783 65.7344Z" fill="#A0985F"/>
<path d="M153.783 127.608L143.149 117.218L143.149 137.998L153.783 127.608Z" fill="#A0985F"/>
<path d="M82.8121 45.462L62.2788 24.5924L62.2788 66.3315L82.8121 45.462Z" fill="#A0985F"/>
<path d="M180.782 189.362L160.198 210.323L201.316 210.323L180.782 189.362Z" fill="#A08F6C"/>
<path d="M179.959 388.839L194.683 374.643L194.683 403L179.959 388.839Z" fill="#A08F6C" fill-opacity="0.5"/>
<path d="M180.782 230.571L160.198 209.61L201.316 209.61L180.782 230.571Z" fill="#BCB679"/>
<path d="M160.301 127.477L139.716 148.438L180.834 148.438L160.301 127.477Z" fill="#A08F6C"/>
<path d="M82.8634 45.3193L62.2791 66.2804L103.397 66.2804L82.8634 45.3193Z" fill="#A08F6C"/>
<path d="M180.834 106.801L160.249 85.8402L201.367 85.8402L180.834 106.801Z" fill="#807552"/>
<path d="M103.397 24.6436L82.8122 3.6825L123.93 3.6825L103.397 24.6436Z" fill="#807552"/>
<path d="M160.249 44.9166L139.716 24.047L139.716 65.7861L160.249 44.9166Z" fill="#A6A06E" fill-opacity="0.5"/>
<path d="M160.249 168.687L139.716 147.817L139.716 189.556L160.249 168.687Z" fill="#BCB679"/>
<path d="M62.2788 65.7095L41.7455 44.84L41.7455 86.5791L62.2788 65.7095Z" fill="#BCB679" fill-opacity="0.5"/>
<path d="M103.068 78.2547L91.2067 66.2118L91.2067 90.2976L103.068 78.2547Z" fill="#BCB679" fill-opacity="0.5"/>
<path d="M135.787 83.7083L123.927 71.6654L123.927 95.7512L135.787 83.7083Z" fill="#BCB679" fill-opacity="0.5"/>
<path d="M52.8971 20.9954L41.0361 8.95251L41.0361 33.0383L52.8971 20.9954Z" fill="#BCB679" fill-opacity="0.5"/>
<path d="M180.783 24.0982L160.249 3.22864L160.249 44.9678L180.783 24.0982Z" fill="#BCB679"/>
</svg>
