<svg width="284" height="95" viewBox="0 0 284 95" fill="none" xmlns="http://www.w3.org/2000/svg">
<path d="M130.5 23L155.182 47H105.818L130.5 23Z" fill="#CFC596"/>
<path d="M179.5 51L204.182 75H154.818L179.5 51Z" fill="#A6A06E"/>
<path d="M36 42L67.1769 72.75H4.82309L36 42Z" fill="#BCB679"/>
<path d="M86.3789 63.2036L48.2738 25.7036L124.484 25.7036L86.3789 63.2036Z" fill="#A0985F"/>
<path d="M131 70.5304L155 46L155 95L131 70.5304Z" fill="#A08F6C"/>
<path d="M131 24.0298L155 -1.04907e-06L155 48L131 24.0298Z" fill="#A08F6C"/>
<path d="M180 51.0298L155 27L155 75L180 51.0298Z" fill="#807552"/>
<path d="M239.379 64.2036L201.274 26.7036L277.484 26.7036L239.379 64.2036Z" fill="#BCB679"/>
<path d="M179.5 51L154.818 27L204.182 27L179.5 51Z" fill="#BCB679"/>
</svg>
