<svg width="46" height="46" viewBox="0 0 46 46" fill="none" xmlns="http://www.w3.org/2000/svg">
<path d="M20.8787 20.8787C19.7071 22.0502 19.7071 23.9497 20.8787 25.1213L39.9706 44.2132C41.1421 45.3848 43.0416 45.3848 44.2132 44.2132C45.3848 43.0416 45.3848 41.1422 44.2132 39.9706L27.2426 23L44.2132 6.02945C45.3848 4.85788 45.3848 2.95839 44.2132 1.78681C43.0416 0.615239 41.1421 0.615237 39.9706 1.78681L20.8787 20.8787ZM25 20L23 20L23 26L25 26L25 20Z" fill="#7E7451" fill-opacity="0.4"/>
<path d="M0.87868 20.8787C-0.292893 22.0502 -0.292893 23.9497 0.87868 25.1213L19.9706 44.2132C21.1421 45.3848 23.0416 45.3848 24.2132 44.2132C25.3848 43.0416 25.3848 41.1422 24.2132 39.9706L7.24264 23L24.2132 6.02945C25.3848 4.85788 25.3848 2.95839 24.2132 1.78681C23.0416 0.615239 21.1421 0.615237 19.9706 1.78681L0.87868 20.8787ZM5 20L3 20L3 26L5 26L5 20Z" fill="#7E7451" fill-opacity="0.4"/>
</svg>
