<svg width="251" height="161" viewBox="0 0 251 161" fill="none" xmlns="http://www.w3.org/2000/svg">
<path d="M154.692 130.988L139.57 145.866L169.813 145.866L154.692 130.988Z" fill="#BEB385"/>
<path d="M154.692 101.233L139.57 116.111L169.813 116.111L154.692 101.233Z" fill="#CFC596"/>
<path d="M55.515 104.314L45.0781 114.39L65.9518 114.39L55.515 104.314Z" fill="#CFC596"/>
<path d="M244.371 130.989L229.25 145.867L259.493 145.867L244.371 130.989Z" fill="#CFC596"/>
<path d="M199.532 116.111L184.41 130.989L214.653 130.989L199.532 116.111Z" fill="#CFC596"/>
<path d="M259.061 60.0031L243.939 74.8808L274.182 74.8808L259.061 60.0031Z" fill="#CFC596"/>
<path d="M244.584 104.314L234.318 114.687L254.849 114.687L244.584 104.314Z" fill="#CFC596"/>
<path d="M257.228 1.13993e-06L245.936 10.9648L268.521 10.9648L257.228 1.13993e-06Z" fill="#CFC596"/>
<path d="M169.776 116.111L154.654 130.989L184.897 130.989L169.776 116.111Z" fill="#A6A06E"/>
<path d="M214.616 130.989L199.494 145.867L229.737 145.867L214.616 130.989Z" fill="#A6A06E"/>
<path d="M259.455 116.111L244.334 130.989L274.577 130.989L259.455 116.111Z" fill="#CFC596"/>
<path d="M214.616 101.233L199.494 116.111L229.737 116.111L214.616 101.233Z" fill="#BCB679"/>
<path d="M154.691 130.988L169.812 116.111L139.57 116.111L154.691 130.988Z" fill="#807552"/>
<path d="M90.0153 136.005L105.137 121.127L74.894 121.127L90.0153 136.005Z" fill="#807552"/>
<path d="M70.3339 158.052L79.2309 149.161L61.4369 149.161L70.3339 158.052Z" fill="#807552"/>
<path d="M199.531 145.866L214.652 130.989L184.41 130.989L199.531 145.866Z" fill="#807552"/>
<path d="M244.371 130.989L259.492 116.112L229.249 116.112L244.371 130.989Z" fill="#A0985F"/>
<path d="M199.54 111.426L207.069 103.721L192.012 103.721L199.54 111.426Z" fill="#A0985F"/>
<path d="M259.06 60.0031L274.182 45.1254L243.939 45.1254L259.06 60.0031Z" fill="#A0985F"/>
<path d="M154.795 130.989L139.607 116.074L139.607 145.866L154.795 130.989Z" fill="#A08F6C"/>
<path d="M199.635 145.867L184.447 130.953L184.447 160.745L199.635 145.867Z" fill="#A08F6C"/>
<path d="M169.775 145.867L184.963 130.953L184.963 160.745L169.775 145.867Z" fill="#A08F6C" fill-opacity="0.5"/>
<path d="M10.2606 130.393L20.5467 141.061L-4.57848e-07 141.061L10.2606 130.393Z" fill="#A08F6C" fill-opacity="0.5"/>
<path d="M124.936 130.989L140.123 116.074L140.123 145.866L124.936 130.989Z" fill="#BCB679"/>
<path d="M199.635 116.148L184.447 101.234L184.447 131.026L199.635 116.148Z" fill="#A08F6C"/>
<path d="M259.164 60.0402L243.976 45.1255L243.976 74.918L259.164 60.0402Z" fill="#A08F6C"/>
<path d="M214.615 131.027L229.803 116.112L229.803 145.904L214.615 131.027Z" fill="#807552"/>
<path d="M169.708 141.456L178.092 133.158L161.324 133.158L169.708 141.456Z" fill="#A6A06E"/>
<path d="M259.455 116.111L274.576 101.234L244.333 101.234L259.455 116.111Z" fill="#A6A06E" fill-opacity="0.5"/>
<path d="M169.775 116.111L184.896 101.234L154.654 101.234L169.775 116.111Z" fill="#BCB679"/>
<path d="M244.388 45.125L259.51 30.2473L229.267 30.2473L244.388 45.125Z" fill="#BCB679" fill-opacity="0.5"/>
<path d="M235.3 74.6787L244.026 66.0847L226.575 66.0847L235.3 74.6787Z" fill="#BCB679" fill-opacity="0.5"/>
<path d="M231.347 98.3867L240.073 89.7927L222.621 89.7927L231.347 98.3867Z" fill="#BCB679" fill-opacity="0.5"/>
</svg>
