<svg width="600" height="168" viewBox="0 0 600 168" fill="none" xmlns="http://www.w3.org/2000/svg">
<path d="M279.5 45L311.11 75.75H247.89L279.5 45Z" fill="#CFC596"/>
<path d="M484.5 50L505.718 71H463.282L484.5 50Z" fill="#CFC596"/>
<path d="M99 106L130.177 136.75H67.8231L99 106Z" fill="#CFC596"/>
<path d="M192 76L223.177 106.75H160.823L192 76Z" fill="#CFC596"/>
<path d="M98.5 50L119.718 71.75H77.2824L98.5 50Z" fill="#CFC596"/>
<path d="M58 0L81.3827 23.25H34.6173L58 0Z" fill="#CFC596"/>
<path d="M247.5 75L278.244 105.75H216.756L247.5 75Z" fill="#A6A06E"/>
<path d="M340 45L371.177 75.75H308.823L340 45Z" fill="#A6A06E"/>
<path d="M248.5 15L279.244 45.75H217.756L248.5 15Z" fill="#CFC596"/>
<path d="M67.5 76L99.1099 106.75H35.8901L67.5 76Z" fill="#CFC596"/>
<path d="M160.5 45L192.11 75.75H128.89L160.5 45Z" fill="#BCB679"/>
<path d="M278.5 106L246.89 75.25L310.11 75.25L278.5 106Z" fill="#807552"/>
<path d="M413.5 117L381.89 86.25L445.11 86.25L413.5 117Z" fill="#807552"/>
<path d="M454.5 162L435.88 144L473.12 144L454.5 162Z" fill="#807552"/>
<path d="M192 137L160.823 106.25L223.177 106.25L192 137Z" fill="#807552"/>
<path d="M99 106L67.8231 75.25L130.177 75.25L99 106Z" fill="#A0985F"/>
<path d="M192 65L176.412 49.25L207.588 49.25L192 65Z" fill="#A0985F"/>
<path d="M278 105.538L310 75L310 136L278 105.538Z" fill="#A08F6C"/>
<path d="M191 137.039L223 106L223 168L191 137.039Z" fill="#A08F6C"/>
<path d="M254 137.039L222 106L222 168L254 137.039Z" fill="#A08F6C" fill-opacity="0.5"/>
<path d="M578.527 105L557 127L600 127L578.527 105Z" fill="#A08F6C" fill-opacity="0.5"/>
<path d="M339 105.538L309 75L309 136L339 105.538Z" fill="#BCB679"/>
<path d="M279 45.0385L311 14L311 76L279 45.0385Z" fill="#A08F6C"/>
<path d="M191 75.5379L223 45L223 106L191 75.5379Z" fill="#A08F6C"/>
<path d="M67 137.039L36 106L36 168L67 137.039Z" fill="#A08F6C" fill-opacity="0.5"/>
<path d="M340 45.0385L310 14L310 76L340 45.0385Z" fill="#807552"/>
<path d="M253.5 128L235.746 110.75L271.254 110.75L253.5 128Z" fill="#A6A06E"/>
<path d="M67.5 76L35.8901 45.25L99.1099 45.25L67.5 76Z" fill="#A6A06E" fill-opacity="0.5"/>
<path d="M248.5 76L217.756 45.25L279.244 45.25L248.5 76Z" fill="#BCB679"/>
<path d="M67.5 127L51.4785 110.5L83.5215 110.5L67.5 127Z" fill="#BCB679"/>
<path d="M126 38L107.813 20.75L144.187 20.75L126 38Z" fill="#BCB679" fill-opacity="0.5"/>
<path d="M36.5 106L4.89008 75.25L68.1099 75.25L36.5 106Z" fill="#BCB679"/>
</svg>
