<svg width="85" height="85" viewBox="0 0 85 85" fill="none" xmlns="http://www.w3.org/2000/svg">
<path d="M40.1473 0H5.97674C3.76761 0 1.97674 1.79086 1.97674 4V9.83721C1.97674 12.0463 3.7676 13.8372 5.97674 13.8372H29.3217L0.715856 54.9782C0.249801 55.6485 0 56.4453 0 57.2617V65.5155C0 67.7246 1.79087 69.5155 4 69.5155H22.4031L19.1085 82.0349L32.6163 56.0077H16.8023L44.1473 12.5194V4C44.1473 1.79086 42.3564 0 40.1473 0Z" fill="white"/>
<path d="M56.3375 21.0853L39.5352 50.0775L48.9069 82.1228C49.4056 83.8281 50.9694 85 52.7461 85H65.3499C67.2104 85 68.8253 83.7172 69.2462 81.9048L83.5318 20.3893C84.1142 17.8814 82.2101 15.4845 79.6355 15.4845H72.791C70.886 15.4845 69.2454 16.8278 68.8696 18.6953L58.9731 67.8682L50.7367 37.2287L56.3375 21.0853Z" fill="white"/>
</svg>
