<svg width="237" height="121" viewBox="0 0 237 121" fill="none" xmlns="http://www.w3.org/2000/svg">
<path fill-rule="evenodd" clip-rule="evenodd" d="M10.156 62.6205C10.156 73.5092 11.3118 80.0071 13.6241 82.1149C15.9358 84.2082 23.0168 85.2551 34.8658 85.2551C45.9062 85.2551 52.64 84.6445 55.0674 83.4233C57.9 81.9698 59.3158 78.0445 59.3158 71.6481H68.1596C68.1596 81.1264 66.2087 87.1014 62.3073 89.5726C58.4055 92.0438 49.2586 93.2794 34.8658 93.2794C20.2422 93.2794 10.9938 91.5352 7.12107 88.0463C3.24833 84.5573 1.31219 76.0968 1.31219 62.664C1.31219 49.1739 3.2341 40.6698 7.07778 37.1516C10.9215 33.6334 20.1841 31.8744 34.8658 31.8744C49.3162 31.8744 58.4779 33.0812 62.3507 35.494C66.2234 37.9073 68.1596 43.8823 68.1596 53.4185H59.3158C59.3158 47.0221 58.0157 43.1696 55.4145 41.8617C52.8133 40.5534 45.9638 39.8991 34.8658 39.8991C22.9586 39.8991 15.864 40.9312 13.5808 42.9953C11.2976 45.0743 10.156 51.6159 10.156 62.6205ZM185.197 113.38H237V114.874H185.197V113.38ZM0 113.38H51.8027V114.874H0V113.38ZM179.597 116.9C179.597 118.215 179.238 119.194 178.52 119.838C177.802 120.483 176.751 120.805 175.366 120.805H164.71V107.43H174.9C176.259 107.43 177.301 107.755 178.025 108.41C178.75 109.063 179.112 110.001 179.112 111.231C179.112 112.575 178.614 113.437 177.618 113.815C178.187 114.01 178.64 114.335 178.976 114.791C179.39 115.351 179.597 116.054 179.597 116.9ZM177.132 111.228C177.132 110.612 176.977 110.14 176.667 109.815C176.291 109.421 175.7 109.226 174.884 109.226H166.69V113.034H174.884C175.725 113.034 176.308 112.888 176.637 112.591C176.967 112.298 177.132 111.843 177.132 111.228ZM166.69 114.83V119.009H175.347C176.097 119.009 176.663 118.817 177.045 118.433C177.427 118.048 177.618 117.544 177.618 116.92C177.618 116.307 177.423 115.806 177.036 115.416C176.647 115.026 176.084 114.83 175.347 114.83H166.69ZM153.686 121C150.93 121 149.002 120.821 147.902 120.463C146.803 120.105 146.104 119.425 145.806 118.423C145.599 117.733 145.496 116.307 145.496 114.147C145.496 111.947 145.592 110.522 145.787 109.871C146.084 108.855 146.789 108.165 147.902 107.801C149.015 107.437 150.943 107.254 153.686 107.254C156.442 107.254 158.367 107.433 159.46 107.791C160.554 108.149 161.256 108.836 161.566 109.851C161.773 110.541 161.877 111.973 161.877 114.147C161.877 116.333 161.78 117.752 161.586 118.403C161.288 119.418 160.589 120.105 159.49 120.463C158.39 120.821 156.455 121 153.686 121ZM153.686 119.204C156.74 119.204 158.539 118.976 159.082 118.52C159.625 118.062 159.897 116.6 159.897 114.137C159.897 111.66 159.628 110.193 159.092 109.734C158.554 109.278 156.753 109.051 153.686 109.051C150.619 109.051 148.818 109.278 148.281 109.734C147.744 110.193 147.475 111.66 147.475 114.137C147.475 116.587 147.747 118.045 148.29 118.511C148.834 118.973 150.633 119.204 153.686 119.204ZM129.502 107.43H143.38V109.226H137.441V120.805H135.461V109.226H129.502V107.43ZM120.962 107.43L127.95 120.805H125.718L124.146 117.837H114.674L113.121 120.805H110.889L117.877 107.43H120.962ZM123.291 116.041L119.682 109.031H119.177L115.567 116.041H123.291ZM94.1198 120.805V107.43H104.95C106.127 107.43 107.05 107.781 107.716 108.488C108.383 109.193 108.715 110.268 108.715 111.706C108.715 113.144 108.376 114.215 107.696 114.914C107.017 115.614 106.076 115.962 104.873 115.962H96.0997V120.805H94.1198ZM96.0997 114.166H104.873C105.442 114.166 105.895 113.971 106.231 113.577C106.567 113.184 106.736 112.559 106.736 111.706C106.736 110.853 106.571 110.226 106.241 109.825C105.911 109.425 105.449 109.226 104.853 109.226H96.0997V114.166ZM85.0362 107.43L92.0236 120.805H89.7917L88.2196 117.837H78.7476L77.1951 120.805H74.9631L81.9506 107.43H85.0362ZM87.3653 116.041L83.7556 109.031H83.2506L79.6404 116.041H87.3653ZM60.0564 114.137C60.0564 116.574 60.3153 118.029 60.833 118.501C61.3475 118.969 62.9355 119.204 65.5979 119.204C68.066 119.204 69.5706 119.067 70.1136 118.794C70.7444 118.468 71.0619 117.59 71.0619 116.158H73.0413C73.0413 118.28 72.6013 119.617 71.7217 120.17C70.8416 120.724 68.7971 121 65.5884 121C62.3148 121 60.2445 120.61 59.377 119.829C58.5101 119.047 58.077 117.153 58.077 114.147C58.077 111.114 58.5038 109.207 59.358 108.426C60.2117 107.645 62.2888 107.254 65.5884 107.254C68.8231 107.254 70.8738 107.524 71.7407 108.064C72.6081 108.605 73.0413 109.942 73.0413 112.077H71.0619C71.0619 110.645 70.7702 109.783 70.1881 109.49C69.6091 109.197 68.0792 109.051 65.5979 109.051C62.9228 109.051 61.3311 109.282 60.8235 109.743C60.3121 110.209 60.0564 111.673 60.0564 114.137ZM234.816 1.97165H231.924L220.531 13.707V1.97165H218.551V15.347H221.54L232.836 3.72911V15.347H234.816V1.97165ZM215.329 1.97165H212.438L201.044 13.707V1.97165H199.064V15.347H202.053L213.349 3.72911V15.347H215.329V1.97165ZM181.48 15.347V1.97165H192.31C193.487 1.97165 194.41 2.32348 195.076 3.02977C195.743 3.73553 196.075 4.80958 196.075 6.24818C196.075 7.68625 195.736 8.75709 195.056 9.45648C194.377 10.1564 193.436 10.5045 192.233 10.5045H183.46V15.347H181.48ZM183.46 8.7082H192.233C192.802 8.7082 193.255 8.5132 193.591 8.11936C193.928 7.72558 194.096 7.10062 194.096 6.24818C194.096 5.3952 193.931 4.76757 193.601 4.36684C193.271 3.9667 192.809 3.76844 192.213 3.76844H183.46V8.7082ZM170.378 15.5421C167.622 15.5421 165.694 15.3635 164.594 15.0053C163.494 14.6471 162.795 13.9674 162.498 12.9651C162.291 12.2748 162.187 10.8494 162.187 8.68859C162.187 6.48892 162.284 5.06356 162.478 4.41259C162.776 3.39753 163.481 2.70717 164.594 2.34261C165.707 1.97854 167.635 1.79626 170.378 1.79626C173.134 1.79626 175.059 1.97539 176.152 2.33305C177.246 2.69125 177.947 3.37787 178.258 4.39292C178.465 5.0827 178.569 6.51494 178.569 8.68859C178.569 10.8754 178.471 12.2944 178.277 12.9454C177.98 13.9605 177.281 14.6471 176.181 15.0053C175.081 15.3635 173.147 15.5421 170.378 15.5421ZM170.378 13.7458C173.432 13.7458 175.23 13.5183 175.773 13.0623C176.317 12.6037 176.589 11.1422 176.589 8.67902C176.589 6.20249 176.32 4.7346 175.783 4.276C175.246 3.82055 173.445 3.59252 170.378 3.59252C167.311 3.59252 165.51 3.82055 164.972 4.276C164.436 4.7346 164.167 6.20249 164.167 8.67902C164.167 11.1295 164.439 12.5872 164.982 13.0528C165.526 13.5146 167.324 13.7458 170.378 13.7458ZM146.194 1.97165H160.072V3.76844H154.132V15.347H152.153V3.76844H146.194V1.97165ZM131.093 8.67902C131.093 11.1162 131.352 12.5713 131.87 13.0432C132.385 13.5114 133.972 13.7458 136.635 13.7458C139.103 13.7458 140.608 13.6092 141.151 13.336C141.781 13.0103 142.099 12.1317 142.099 10.7001H144.078C144.078 12.8216 143.638 14.1592 142.759 14.7125C141.879 15.2657 139.834 15.5421 136.625 15.5421C133.352 15.5421 131.281 15.152 130.414 14.3708C129.547 13.5895 129.114 11.6955 129.114 8.68859C129.114 5.6556 129.541 3.74878 130.395 2.96757C131.249 2.1869 133.326 1.79626 136.625 1.79626C139.86 1.79626 141.911 2.06623 142.778 2.60617C143.645 3.1467 144.078 4.4843 144.078 6.61915H142.099C142.099 5.18691 141.807 4.3249 141.225 4.03205C140.646 3.73868 139.116 3.59252 136.635 3.59252C133.96 3.59252 132.368 3.82376 131.86 4.28557C131.349 4.75112 131.093 6.21521 131.093 8.67902ZM126.106 1.97165H123.214L111.821 13.707V1.97165H109.841V15.347H112.83L124.126 3.72911V15.347H126.106V1.97165ZM96.6423 1.97165H93.7506L82.3573 13.6873V1.97165H80.3774V15.347H83.3669L94.6629 3.72911V15.347H96.6423V1.97165ZM85.424 0H91.3633V1.79626H85.424V0ZM64.6946 1.97165H77.408V3.76844H66.6746V7.67348H77.0392V9.4698H66.6746V13.5507H77.408V15.347H64.6946V1.97165ZM62.0163 5.64283C62.0163 4.45828 61.6217 3.56014 60.8324 2.9479C60.1726 2.42763 59.2217 2.0891 57.9793 1.93285C57.2677 1.84148 56.1034 1.79626 54.4858 1.79626C51.2507 1.79626 49.1999 2.06944 48.333 2.61627C47.4661 3.16316 47.0324 4.50343 47.0324 6.63876H49.0124C49.0124 5.20657 49.3035 4.34403 49.8856 4.05118C50.4678 3.75834 52.0014 3.61219 54.4858 3.61219C56.7114 3.61219 58.1926 3.73232 58.9307 3.97306C59.6681 4.21433 60.0369 4.77078 60.0369 5.64283C60.0369 6.47561 59.7585 7.04216 59.2022 7.34136C58.7881 7.56297 58.0828 7.67348 57.0865 7.67348H50.9728V9.4698H57.0865C58.031 9.4698 58.7299 9.59997 59.1827 9.86037C59.7521 10.1857 60.0369 10.7649 60.0369 11.5982C60.0369 12.4703 59.6518 13.0464 58.8821 13.3259C58.1118 13.606 56.6464 13.7458 54.4858 13.7458C52.014 13.7458 50.5069 13.6092 49.9633 13.336C49.3293 13.0103 49.0124 12.1317 49.0124 10.7001H47.0324C47.0324 12.8216 47.4725 14.1592 48.3526 14.7125C49.2322 15.2657 51.2766 15.5421 54.4858 15.5421C56.517 15.5421 57.8821 15.4969 58.5809 15.4055C59.7716 15.2492 60.6253 14.9107 61.1431 14.3904C61.7252 13.8043 62.0163 12.8737 62.0163 11.5982C62.0163 10.843 61.8969 10.2345 61.6576 9.77215C61.4178 9.31034 61.059 8.94899 60.5799 8.68859C61.085 8.38933 61.4505 8.02478 61.6766 7.5954C61.9032 7.16598 62.0163 6.51494 62.0163 5.64283ZM34.281 13.5507C34.8241 13.5507 35.2805 13.4726 35.6493 13.3164C36.018 13.1601 36.3123 12.88 36.5325 12.4735L26.8668 1.97165H29.5837L37.6192 10.8563L42.6462 1.97165H44.8977L38.6477 12.981C38.1823 13.7883 37.5997 14.3872 36.9012 14.771C36.2024 15.1552 35.3033 15.347 34.2034 15.347H29.8557V13.5507H34.281ZM6.38994 1.97165L13.2607 12.9651L20.1319 1.97165H23.6644V15.347H21.6844V3.76844H21.2962L13.8724 15.347H12.6299L5.20608 3.76844H4.83738V15.347H2.85743V1.97165H6.38994ZM199.774 93.2794C187.462 93.2794 178.85 92.4801 173.936 90.881C169.023 89.2819 165.902 86.2436 164.573 81.7662C163.648 78.6844 163.185 72.3172 163.185 62.664C163.185 52.8371 163.619 46.4699 164.486 43.5624C165.815 39.027 168.966 35.9447 173.936 34.3168C178.907 32.6885 187.52 31.8744 199.774 31.8744C212.085 31.8744 220.683 32.6742 225.568 34.2733C230.452 35.8724 233.587 38.9393 234.975 43.4752C235.9 46.5571 236.362 52.9535 236.362 62.664C236.362 72.433 235.929 78.7716 235.061 81.6791C233.732 86.2144 230.611 89.2819 225.698 90.881C220.785 92.4801 212.143 93.2794 199.774 93.2794ZM199.774 85.2551C213.415 85.2551 221.449 84.2374 223.877 82.202C226.305 80.1522 227.519 73.6251 227.519 62.6205C227.519 51.558 226.319 45.0016 223.92 42.9518C221.522 40.9169 213.472 39.8991 199.774 39.8991C186.075 39.8991 178.026 40.9169 175.627 42.9518C173.228 45.0016 172.029 51.558 172.029 62.6205C172.029 73.5671 173.243 80.0799 175.67 82.1584C178.098 84.2231 186.132 85.2551 199.774 85.2551ZM149.4 74.9627C149.4 80.8356 147.796 85.2116 144.588 88.0899C141.38 90.9681 136.683 92.4073 130.499 92.4073H82.8988V32.6593H128.418C134.487 32.6593 139.14 34.1133 142.377 37.0352C145.613 39.9571 147.232 44.1438 147.232 49.6389C147.232 55.6426 145.007 59.495 140.556 61.1813C143.099 62.0539 145.122 63.5074 146.625 65.5429C148.475 68.0428 149.4 71.183 149.4 74.9627ZM138.388 49.6246C138.388 46.877 137.695 44.7688 136.307 43.3153C134.631 41.5562 131.987 40.6841 128.345 40.6841H91.7426V57.6924H128.345C132.102 57.6924 134.704 57.0382 136.178 55.7154C137.651 54.407 138.388 52.3721 138.388 49.6246ZM91.7426 65.7172V84.383H130.412C133.764 84.383 136.293 83.5253 137.998 81.8098C139.703 80.0943 140.556 77.841 140.556 75.0498C140.556 72.3172 139.689 70.0782 137.955 68.334C136.221 66.5893 133.706 65.7172 130.412 65.7172H91.7426Z" fill="#2B2A29"/>
</svg>
