<svg width="32" height="32" viewBox="0 0 32 32" fill="none" xmlns="http://www.w3.org/2000/svg">
<path fill-rule="evenodd" clip-rule="evenodd" d="M23.5402 31.9954C21.2323 31.9105 14.6916 31.0068 7.84164 24.1598C0.993267 17.3112 0.0909409 10.7735 0.00439462 8.46449C-0.123822 4.94566 2.57193 1.52778 5.686 0.192997C6.061 0.0311038 6.47165 -0.030534 6.87766 0.0141324C7.28368 0.0587987 7.6711 0.208234 8.00191 0.447776C10.5662 2.31615 12.3356 5.14275 13.855 7.36525C14.1893 7.85355 14.3322 8.44774 14.2566 9.03461C14.1809 9.62148 13.8919 10.16 13.4447 10.5476L10.3178 12.8694C10.1668 12.9785 10.0604 13.1387 10.0186 13.3202C9.97671 13.5018 10.0022 13.6923 10.0902 13.8565C10.7986 15.1432 12.0584 17.0597 13.5008 18.5018C14.9432 19.9439 16.9514 21.2867 18.3282 22.0751C18.5008 22.172 18.704 22.1991 18.8959 22.1508C19.0879 22.1025 19.2541 21.9825 19.3603 21.8155L21.3958 18.7181C21.77 18.2211 22.322 17.8882 22.9362 17.789C23.5505 17.6899 24.1793 17.8322 24.6909 18.1861C26.9459 19.7469 29.5776 21.4854 31.504 23.9515C31.7631 24.2846 31.9279 24.6812 31.9811 25.0998C32.0344 25.5184 31.9743 25.9436 31.807 26.331C30.4655 29.4605 27.0709 32.1252 23.5402 31.9954Z" fill="#BCB679"/>
</svg>
