<svg width="32" height="32" viewBox="0 0 32 32" fill="none" xmlns="http://www.w3.org/2000/svg">
<path d="M15.999 0C13.8979 0 11.8173 0.413852 9.87609 1.21793C7.93488 2.022 6.17105 3.20055 4.68532 4.68629C1.68473 7.68687 -0.000976562 11.7565 -0.000976562 16C-0.000976562 20.2435 1.68473 24.3131 4.68532 27.3137C6.17105 28.7994 7.93488 29.978 9.87609 30.7821C11.8173 31.5861 13.8979 32 15.999 32C20.2425 32 24.3122 30.3143 27.3127 27.3137C30.3133 24.3131 31.999 20.2435 31.999 16C31.999 13.8989 31.5852 11.8183 30.7811 9.87706C29.977 7.93586 28.7985 6.17203 27.3127 4.68629C25.827 3.20055 24.0632 2.022 22.122 1.21793C20.1807 0.413852 18.1002 0 15.999 0ZM22.719 22.72L14.399 17.6V8H16.799V16.32L23.999 20.64L22.719 22.72Z" fill="#81CBE7"/>
</svg>
