<svg width="21" height="19" viewBox="0 0 21 19" fill="none" xmlns="http://www.w3.org/2000/svg">
<path d="M10.0923 0C8.77619 0 7.47297 0.245725 6.25704 0.723144C5.04112 1.20056 3.93631 1.90033 3.00568 2.78249C1.1262 4.56408 0.0703125 6.98044 0.0703125 9.5C0.0703125 12.0196 1.1262 14.4359 3.00568 16.2175C3.93631 17.0997 5.04112 17.7994 6.25704 18.2769C7.47297 18.7543 8.77619 19 10.0923 19C12.7503 19 15.2994 17.9991 17.1789 16.2175C19.0584 14.4359 20.1143 12.0196 20.1143 9.5C20.1143 8.25244 19.855 7.0171 19.3514 5.86451C18.8477 4.71191 18.1095 3.66464 17.1789 2.78249C16.2483 1.90033 15.1435 1.20056 13.9275 0.723144C12.7116 0.245725 11.4084 0 10.0923 0ZM14.3015 13.49L9.09009 10.45V4.75H10.5934V9.69L15.1033 12.255L14.3015 13.49Z" fill="#807552"/>
</svg>
