<svg width="21" height="24" viewBox="0 0 21 24" fill="none" xmlns="http://www.w3.org/2000/svg">
<path d="M10.0923 0C4.83075 0 0.0703125 3.92733 0.0703125 10.0013C0.0703125 13.8798 3.13954 18.4414 9.26548 23.6981C9.74152 24.1006 10.4556 24.1006 10.9316 23.6981C17.045 18.4414 20.1143 13.8798 20.1143 10.0013C20.1143 3.92733 15.3538 0 10.0923 0ZM10.0923 12.1967C8.71427 12.1967 7.5868 11.099 7.5868 9.75734C7.5868 8.4157 8.71427 7.318 10.0923 7.318C11.4703 7.318 12.5978 8.4157 12.5978 9.75734C12.5978 11.099 11.4703 12.1967 10.0923 12.1967Z" fill="#807552"/>
</svg>
