<svg width="32" height="32" viewBox="0 0 32 32" fill="none" xmlns="http://www.w3.org/2000/svg">
<path fill-rule="evenodd" clip-rule="evenodd" d="M23.5392 31.9954C21.2313 31.9105 14.6906 31.0068 7.84067 24.1598C0.99229 17.3112 0.0899644 10.7735 0.00341806 8.46449C-0.124799 4.94566 2.57096 1.52778 5.68502 0.192997C6.06002 0.0311038 6.47067 -0.030534 6.87669 0.0141324C7.2827 0.0587987 7.67012 0.208234 8.00094 0.447776C10.5653 2.31615 12.3347 5.14275 13.854 7.36525C14.1883 7.85355 14.3313 8.44774 14.2556 9.03461C14.1799 9.62148 13.891 10.16 13.4437 10.5476L10.3169 12.8694C10.1658 12.9785 10.0594 13.1387 10.0176 13.3202C9.97573 13.5018 10.0012 13.6923 10.0893 13.8565C10.7977 15.1432 12.0574 17.0597 13.4998 18.5018C14.9423 19.9439 16.9505 21.2867 18.3272 22.0751C18.4998 22.172 18.703 22.1991 18.895 22.1508C19.0869 22.1025 19.2531 21.9825 19.3593 21.8155L21.3948 18.7181C21.769 18.2211 22.321 17.8882 22.9353 17.789C23.5495 17.6899 24.1783 17.8322 24.6899 18.1861C26.945 19.7469 29.5766 21.4854 31.5031 23.9515C31.7621 24.2846 31.9269 24.6812 31.9802 25.0998C32.0335 25.5184 31.9733 25.9436 31.806 26.331C30.4645 29.4605 27.07 32.1252 23.5392 31.9954Z" fill="#81CBE7"/>
</svg>
