<svg width="32" height="40" viewBox="0 0 32 40" fill="none" xmlns="http://www.w3.org/2000/svg">
<path d="M15.999 0C7.59902 0 -0.000976562 6.54555 -0.000976562 16.6688C-0.000976562 23.133 4.89902 30.7356 14.679 39.4969C15.439 40.1677 16.579 40.1677 17.339 39.4969C27.099 30.7356 31.999 23.133 31.999 16.6688C31.999 6.54555 24.399 0 15.999 0ZM15.999 20.3278C13.799 20.3278 11.999 18.4983 11.999 16.2622C11.999 14.0262 13.799 12.1967 15.999 12.1967C18.199 12.1967 19.999 14.0262 19.999 16.2622C19.999 18.4983 18.199 20.3278 15.999 20.3278Z" fill="#81CBE7"/>
</svg>
