<svg width="30" height="21" viewBox="0 0 30 21" fill="none" xmlns="http://www.w3.org/2000/svg">
<path d="M29.0516 0.568359L16.1094 13.4572C15.7763 13.7884 15.3258 13.9742 14.8561 13.9742C14.3864 13.9742 13.9358 13.7884 13.6028 13.4572L0.776089 0.666137C0.736658 0.811062 0.71575 0.9604 0.713867 1.11058V18.8884C0.713867 19.3599 0.901168 19.812 1.23457 20.1454C1.56796 20.4788 2.02015 20.6661 2.49164 20.6661H27.3805C27.852 20.6661 28.3042 20.4788 28.6376 20.1454C28.971 19.812 29.1583 19.3599 29.1583 18.8884V1.11058C29.1512 0.925386 29.1152 0.742435 29.0516 0.568359ZM3.70942 18.8884H2.47387V17.6172L8.93609 11.2084L10.1894 12.4617L3.70942 18.8884ZM27.3628 18.8884H26.1183L19.6383 12.4617L20.8916 11.2084L27.3539 17.6172L27.3628 18.8884Z" fill="#81CBE7"/>
</svg>
