<svg width="21" height="19" viewBox="0 0 21 19" fill="none" xmlns="http://www.w3.org/2000/svg">
<path fill-rule="evenodd" clip-rule="evenodd" d="M14.8153 18.9973C13.3697 18.9469 9.27276 18.4103 4.98211 14.3449C0.692469 10.2785 0.127275 6.39678 0.0730652 5.02579C-0.0072464 2.93648 1.6813 0.90712 3.63187 0.114592C3.86676 0.0184679 4.12398 -0.0181296 4.3783 0.00839109C4.63261 0.0349117 4.87529 0.123639 5.0825 0.265867C6.68873 1.37522 7.79703 3.05351 8.74872 4.37312C8.95812 4.66304 9.04765 5.01584 9.00026 5.3643C8.95286 5.71275 8.77186 6.03251 8.49173 6.26263L6.53313 7.64122C6.4385 7.70598 6.37189 7.80109 6.34568 7.90888C6.31946 8.01667 6.33541 8.12981 6.39057 8.2273C6.8343 8.99128 7.62336 10.1292 8.52686 10.9854C9.43037 11.8417 10.6882 12.639 11.5506 13.1071C11.6587 13.1646 11.786 13.1807 11.9062 13.152C12.0265 13.1234 12.1306 13.0521 12.1971 12.953L13.472 11.1139C13.7064 10.8188 14.0522 10.6211 14.437 10.5622C14.8217 10.5034 15.2156 10.5878 15.5361 10.798C16.9485 11.7247 18.5969 12.757 19.8036 14.2212C19.9659 14.419 20.0691 14.6545 20.1025 14.903C20.1358 15.1516 20.0982 15.404 19.9933 15.6341C19.1531 17.4922 17.0268 19.0744 14.8153 18.9973Z" fill="#807552"/>
</svg>
